<svg width="634" height="610" viewBox="0 0 634 610" fill="none" xmlns="http://www.w3.org/2000/svg">
<path d="M614.25 24.1172L19.125 163.381V481.375L614.25 586.617V24.1172Z" fill="#FBE6A7"/>
<path d="M633.375 609.421L0 497.415V148.215L633.375 0V609.421ZM19.125 481.375L614.25 586.617V24.1172L19.125 163.381V481.375Z" fill="#DE1923"/>
<g clip-path="url(#clip0_592_170)">
<path d="M216.417 328.493L240.179 327.004C249.951 326.391 258.009 316.276 257.932 304.469L257.451 234.128C257.373 222.632 249.346 215.053 239.753 217.109L216.417 222.104C207.661 223.982 200.696 234.058 200.673 244.693L200.502 309.721C200.471 320.628 207.505 329.052 216.417 328.493Z" fill="#1E223D"/>
<path d="M133.688 239.806C163.004 233.53 195.228 226.634 230.819 219.017C233.688 233.778 236.596 248.734 239.543 263.892C222.737 268.298 209.483 269.415 200.603 269.624C181.672 270.059 160.119 270.578 143.732 253.753C138.838 248.726 135.62 243.428 133.688 239.813V239.806Z" fill="#1E223D"/>
<path d="M287.767 502.16C287.705 496.924 291.334 493.254 295.918 493.968L390 507.5L532.88 530.814C540.767 532.04 547.545 538.75 547.918 545.793C548.29 552.852 542.07 557.414 534.144 555.986L296.166 513.151C291.567 512.321 287.836 507.403 287.774 502.16H287.767Z" fill="#1E223D"/>
<path d="M540.247 434.021L539.231 432.927C534.353 427.676 526.016 426.442 520.61 430.088L376.048 527.533L409.792 533.607L539.03 450.264C544.637 446.649 545.18 439.335 540.24 434.021H540.247Z" fill="#1E223D"/>
<path d="M556.673 490.353L555.999 489.019C552.749 482.596 544.567 478.857 537.773 480.61L364.29 525.423L419.711 535.399L549.949 505.092C556.914 503.47 559.954 496.846 556.673 490.361V490.353Z" fill="#1E223D"/>
<path d="M196.694 159.038C198.454 151.483 209.956 146.999 210.871 146.65C221.915 142.733 233.323 138.691 245.096 134.518C259.521 129.825 274.52 124.938 290.14 119.857C290.45 144.874 290.768 170.108 291.086 195.559C278.592 199.096 257.59 203.137 235.96 196.831C225.304 193.728 217.277 188.903 211.569 184.544C205.644 179.098 201.96 173.505 199.734 169.464C196.135 162.956 196.353 160.528 196.702 159.038H196.694Z" fill="#7297A0"/>
<path d="M535.943 381.04L179.593 378.03L180.097 294.649L271.775 283.944C274.311 283.649 276.351 281.058 276.327 278.149L274.815 124.845C285.611 121.316 296.717 117.685 308.148 113.954C312.709 113.047 341.691 107.911 362.623 135.604C379.577 158.046 380.213 187.088 380.12 196.087L383.563 321.83H383.648L384.214 342.409C384.354 347.444 388.55 351.415 393.63 351.299L405.488 351.012V351.136C416.648 350.834 428.087 350.516 439.814 350.182C450.858 350.05 469.688 351.059 491.892 358.482C511.754 365.13 526.559 374.283 535.943 381.048V381.04Z" fill="#7297A0"/>
<path d="M382.252 271.044L383.641 321.822L383.555 321.83L382.167 271.052L382.252 271.044Z" fill="#1E223D"/>
<path d="M377.087 510.847C373.194 508.373 371.581 502.749 373.458 498.258L417.951 391.9C419.975 387.059 425.102 384.701 429.422 386.664C433.788 388.649 435.665 394.281 433.571 399.199L387.736 507.155C385.805 511.708 381.019 513.345 377.087 510.847Z" fill="#1E223D"/>
<path d="M378.545 502.547C375.404 498.847 375.296 492.983 378.289 489.414L451.781 401.798C455.247 397.663 461.118 397.167 464.903 400.735C468.719 404.334 468.936 410.664 465.368 414.822L389.845 502.857C386.774 506.441 381.71 506.286 378.538 502.555L378.545 502.547Z" fill="#1E223D"/>
<path d="M374.194 507.713C371.891 503.269 372.969 497.621 376.622 495.062L468.191 430.755C472.612 427.652 478.591 428.886 481.538 433.571C484.509 438.287 483.229 444.64 478.708 447.712L385.122 511.274C381.399 513.803 376.506 512.189 374.187 507.713H374.194Z" fill="#1E223D"/>
<path d="M179.252 394.762L339.38 400.146C371.263 401.216 399.826 430.825 400.881 466.57C401.951 502.726 374.419 527.238 341.792 521.366L178.67 492.006C159.033 488.468 144.181 464.887 144.484 439.342C144.778 414 159.902 394.111 179.259 394.762H179.252Z" fill="#7297A0"/>
<path d="M259.537 147.209C259.583 153.5 255.147 159.899 249.711 161.459C244.274 163.018 240.039 159.248 240.016 153.112C239.993 146.991 244.243 140.677 249.587 138.986C254.93 137.295 259.498 140.933 259.545 147.216L259.537 147.209Z" fill="#FBE6A7"/>
<path d="M257.901 147.705C257.939 152.956 254.24 158.301 249.695 159.612C245.205 160.908 241.591 157.774 241.567 152.638C241.544 147.503 245.12 142.221 249.587 140.817C254.054 139.413 257.862 142.461 257.893 147.705H257.901Z" fill="#1E223D"/>
<path d="M201.239 395.499C197.532 395.375 194.569 391.434 194.585 386.702C194.6 381.97 197.586 378.177 201.285 378.208L203.48 378.224L203.542 350.872L179.764 351.617L180.105 294.641C141.886 299.109 113.338 341.214 112.516 389.821C111.694 438.427 139.606 484.977 178.911 492.052L179.229 438.52L203.341 440.917L203.434 395.576L201.239 395.499Z" fill="#7297A0"/>
<path d="M209.452 147.24C206.101 148.721 198.129 152.833 196.686 159.038C196.376 160.365 196.182 162.436 198.671 167.463C204.085 163.351 208.281 155.61 209.452 147.24Z" fill="#DE1923"/>
<path d="M535.982 380.978L374.303 379.62C373.946 379.651 373.582 379.667 373.209 379.667L302.006 379.062C296.538 379.015 292.102 374.066 292.025 368.008L291.97 363.516C291.893 357.481 296.189 352.494 301.634 352.354L321.79 351.842L321.69 345.97C321.581 339.741 326.18 334.482 332.035 334.21L339.566 333.861L339.326 321.768C339.201 315.446 343.979 309.969 350.067 309.511L371.395 307.906C377.902 307.417 383.392 312.397 383.579 319.053L383.656 321.768H383.679L384.246 342.347C384.385 347.382 388.581 351.353 393.668 351.237L405.534 350.95V351.074C416.695 350.772 428.134 350.454 439.86 350.12C450.904 349.988 469.735 350.989 491.946 358.412C511.816 365.052 526.614 374.214 535.998 380.97L535.982 380.978Z" fill="#1E223D"/>
<path d="M380.143 194.109C380.143 192.635 380.096 190.851 379.996 188.811L380.143 194.109Z" fill="#1E223D"/>
<path d="M438.1 520.459L398.082 529.092L389.38 506.154L428.506 496.66L438.1 520.459Z" fill="#1E223D"/>
<path d="M222.233 496.652C162.174 463.25 123.994 414.411 114.206 371.11C113.221 377.138 112.647 383.39 112.539 389.821C111.717 438.737 139.071 484.062 177.74 491.827C177.98 491.873 178.213 491.928 178.453 491.966L231.284 501.477C228.243 499.917 225.234 498.319 222.233 496.652Z" fill="#DE1923"/>
<path d="M330.429 121.215L297.802 131.253C297.127 131.462 296.577 131.043 296.569 130.314C296.561 129.593 297.096 128.832 297.771 128.623L330.383 118.477C331.112 118.252 331.717 118.678 331.732 119.431C331.748 120.183 331.166 120.982 330.437 121.207L330.429 121.215Z" fill="#FBE6A7"/>
<path d="M341.326 123.891L321.433 129.871C320.719 130.089 320.13 129.654 320.114 128.91C320.099 128.165 320.665 127.381 321.386 127.164L341.271 121.121C342.024 120.896 342.644 121.331 342.66 122.091C342.675 122.859 342.078 123.666 341.326 123.891Z" fill="#FBE6A7"/>
<path d="M335.75 131.57L330.515 133.106C329.786 133.324 329.181 132.881 329.165 132.129C329.15 131.376 329.732 130.585 330.461 130.368L335.696 128.817C336.44 128.599 337.053 129.034 337.068 129.802C337.084 130.562 336.494 131.361 335.75 131.578V131.57Z" fill="#FBE6A7"/>
<path d="M337.526 135.318L313.034 142.369C312.336 142.571 311.755 142.136 311.747 141.392C311.731 140.647 312.29 139.887 312.995 139.677L337.472 132.548C338.216 132.331 338.837 132.773 338.852 133.541C338.868 134.309 338.278 135.101 337.526 135.318Z" fill="#FBE6A7"/>
<path d="M326.024 118.608L316.888 121.463C316.182 121.68 315.601 121.261 315.585 120.524C315.57 119.787 316.136 119.004 316.842 118.779L325.97 115.893C326.691 115.668 327.288 116.087 327.304 116.84C327.319 117.592 326.745 118.383 326.016 118.608H326.024Z" fill="#FBE6A7"/>
<path d="M317.214 133.114L311.615 134.782C310.917 134.992 310.343 134.557 310.335 133.82C310.319 133.083 310.878 132.315 311.576 132.106L317.175 130.423C317.881 130.205 318.47 130.64 318.478 131.385C318.494 132.129 317.928 132.905 317.214 133.114Z" fill="#FBE6A7"/>
<path d="M326.319 134.394L310.11 139.142C309.412 139.343 308.846 138.909 308.83 138.172C308.822 137.435 309.373 136.667 310.063 136.465L326.265 131.664C326.986 131.447 327.591 131.889 327.606 132.641C327.622 133.394 327.04 134.177 326.319 134.394Z" fill="#FBE6A7"/>
<path d="M306.271 140.266L286.549 146.045C285.897 146.239 285.354 145.813 285.347 145.091C285.339 144.378 285.859 143.641 286.518 143.447L306.232 137.606C306.923 137.404 307.489 137.831 307.504 138.568C307.512 139.304 306.961 140.065 306.271 140.266Z" fill="#FBE6A7"/>
<path d="M312.266 130.702L269.611 143.617C268.983 143.803 268.471 143.392 268.471 142.694C268.471 141.996 268.967 141.275 269.587 141.081L312.219 128.025C312.917 127.808 313.499 128.235 313.507 128.98C313.522 129.716 312.964 130.492 312.258 130.702H312.266Z" fill="#FBE6A7"/>
<path d="M308.853 120.098L295.84 124.232C295.173 124.442 294.622 124.03 294.614 123.309C294.607 122.588 295.142 121.827 295.809 121.618L308.815 117.445C309.505 117.22 310.079 117.639 310.087 118.368C310.102 119.105 309.544 119.873 308.853 120.098Z" fill="#FBE6A7"/>
<path d="M311.002 123.301L290.24 129.794C289.581 130.003 289.038 129.584 289.03 128.871C289.023 128.157 289.55 127.405 290.209 127.195L310.963 120.64C311.661 120.423 312.235 120.842 312.243 121.579C312.258 122.316 311.7 123.092 311.002 123.309V123.301Z" fill="#FBE6A7"/>
<path d="M309.326 150.359L293.761 154.702C293.094 154.889 292.543 154.454 292.536 153.725C292.528 152.996 293.063 152.259 293.73 152.073L309.288 147.675C309.986 147.481 310.56 147.923 310.567 148.66C310.583 149.404 310.024 150.165 309.326 150.359Z" fill="#FBE6A7"/>
<path d="M315.081 165.764L305.022 168.362C304.332 168.541 303.766 168.083 303.758 167.346C303.751 166.609 304.293 165.865 304.984 165.678L315.043 163.049C315.748 162.863 316.338 163.32 316.345 164.073C316.361 164.825 315.795 165.578 315.081 165.764Z" fill="#FBE6A7"/>
<path d="M319.486 168.068L315.035 169.2C314.329 169.379 313.747 168.921 313.732 168.169C313.716 167.416 314.283 166.664 314.988 166.485L319.44 165.337C320.153 165.151 320.751 165.617 320.758 166.369C320.774 167.122 320.2 167.882 319.486 168.068Z" fill="#FBE6A7"/>
<path d="M361.615 177.896L363.305 247.268C363.329 248.083 362.685 248.843 361.886 248.959C361.087 249.075 360.42 248.509 360.397 247.695L358.745 178.555C358.73 177.756 359.35 176.965 360.141 176.787C360.932 176.601 361.591 177.105 361.615 177.896Z" fill="#FBE6A7"/>
<path d="M366.198 182.993L366.803 207.032C366.826 207.839 366.183 208.622 365.376 208.777C364.57 208.933 363.903 208.405 363.887 207.598L363.298 183.644C363.274 182.845 363.91 182.046 364.709 181.868C365.508 181.689 366.175 182.194 366.198 183V182.993Z" fill="#FBE6A7"/>
<path d="M366.896 210.972L367.02 216.053C367.043 216.868 366.4 217.643 365.593 217.791C364.787 217.938 364.12 217.395 364.096 216.589L363.972 211.523C363.949 210.716 364.585 209.933 365.391 209.778C366.198 209.623 366.873 210.158 366.888 210.965L366.896 210.972Z" fill="#FBE6A7"/>
<path d="M357.613 204.433L357.962 219.366C357.977 220.172 357.357 220.94 356.566 221.08C355.775 221.22 355.123 220.684 355.108 219.885L354.766 204.999C354.751 204.2 355.371 203.425 356.155 203.27C356.946 203.114 357.597 203.634 357.62 204.433H357.613Z" fill="#FBE6A7"/>
<path d="M371.829 219.823L372.224 235.089C372.247 235.911 371.596 236.687 370.774 236.811C369.96 236.943 369.277 236.385 369.254 235.562L368.866 220.351C368.843 219.536 369.486 218.753 370.301 218.613C371.115 218.466 371.798 219.009 371.821 219.831L371.829 219.823Z" fill="#FBE6A7"/>
<path d="M367.602 238.805L367.982 254.079C368.005 254.901 367.362 255.661 366.547 255.77C365.733 255.879 365.058 255.304 365.043 254.482L364.67 239.263C364.647 238.448 365.291 237.68 366.097 237.556C366.912 237.424 367.586 237.991 367.602 238.805Z" fill="#FBE6A7"/>
<path d="M353.471 222.244L353.812 237.184C353.828 237.991 353.208 238.743 352.424 238.867C351.641 238.991 350.989 238.44 350.974 237.641L350.64 222.748C350.625 221.949 351.238 221.189 352.021 221.049C352.804 220.909 353.456 221.445 353.471 222.244Z" fill="#FBE6A7"/>
<path d="M357.039 241.349L357.388 256.445C357.403 257.259 356.775 258.004 355.984 258.113C355.193 258.221 354.534 257.647 354.518 256.84L354.177 241.799C354.161 240.993 354.782 240.24 355.573 240.116C356.364 239.992 357.023 240.543 357.039 241.357V241.349Z" fill="#FBE6A7"/>
<path d="M358.195 228.054L358.365 235.26C358.381 236.067 357.752 236.827 356.961 236.959C356.17 237.083 355.511 236.532 355.496 235.726L355.333 228.542C355.317 227.736 355.938 226.975 356.729 226.836C357.52 226.696 358.179 227.239 358.195 228.046V228.054Z" fill="#FBE6A7"/>
<path d="M256.279 406.421L217.812 404.66C217.245 404.637 216.788 404.04 216.788 403.334C216.788 402.628 217.245 402.069 217.812 402.092L256.263 403.714C256.892 403.737 257.411 404.373 257.411 405.118C257.411 405.87 256.907 406.452 256.279 406.421Z" fill="#FBE6A7"/>
<path d="M267.479 294.377L228.507 298.41C227.933 298.472 227.468 297.953 227.468 297.262C227.468 296.564 227.925 295.951 228.499 295.889L267.448 291.716C268.084 291.646 268.611 292.189 268.611 292.918C268.611 293.655 268.107 294.299 267.463 294.369L267.479 294.377Z" fill="#FBE6A7"/>
<path d="M304.068 444.369L286.843 442.802C286.161 442.74 285.595 442.05 285.587 441.266C285.579 440.483 286.122 439.893 286.812 439.947L304.03 441.452C304.743 441.514 305.34 442.22 305.348 443.027C305.356 443.834 304.79 444.439 304.068 444.369Z" fill="#FBE6A7"/>
<path d="M334.323 442.173L301.936 439.42C301.222 439.358 300.641 438.659 300.625 437.861C300.617 437.062 301.184 436.456 301.889 436.519L334.261 439.156C335.036 439.218 335.672 439.947 335.688 440.785C335.703 441.623 335.091 442.251 334.315 442.181L334.323 442.173Z" fill="#FBE6A7"/>
<path d="M246.662 413.604L237.868 413.108C237.27 413.077 236.782 412.456 236.782 411.727C236.782 410.998 237.263 410.432 237.86 410.463L246.655 410.928C247.267 410.959 247.771 411.587 247.771 412.332C247.771 413.077 247.283 413.651 246.662 413.612V413.604Z" fill="#FBE6A7"/>
<path d="M273.139 411.145L241.179 409.516C240.574 409.485 240.085 408.865 240.085 408.136C240.085 407.407 240.566 406.832 241.171 406.864L273.116 408.376C273.775 408.407 274.318 409.059 274.326 409.819C274.326 410.587 273.806 411.184 273.147 411.145H273.139Z" fill="#FBE6A7"/>
<path d="M240.9 301.684L217.036 304.003C216.478 304.058 216.036 303.546 216.036 302.863C216.036 302.18 216.486 301.575 217.036 301.521L240.892 299.116C241.489 299.054 241.97 299.582 241.97 300.295C241.97 301.009 241.497 301.63 240.9 301.684Z" fill="#FBE6A7"/>
<path d="M234.695 412.93L231.849 412.767C231.26 412.736 230.779 412.123 230.779 411.394C230.779 410.672 231.252 410.106 231.841 410.137L234.688 410.284C235.285 410.315 235.766 410.936 235.766 411.665C235.766 412.394 235.285 412.961 234.695 412.93Z" fill="#FBE6A7"/>
<path d="M310.203 447.867L306.713 447.534C305.992 447.464 305.402 446.758 305.387 445.944C305.379 445.137 305.953 444.532 306.667 444.602L310.157 444.92C310.886 444.99 311.483 445.703 311.498 446.518C311.514 447.332 310.932 447.937 310.203 447.867Z" fill="#FBE6A7"/>
<path d="M321.573 436.232L309.583 435.286C308.861 435.231 308.264 434.525 308.249 433.719C308.233 432.912 308.815 432.299 309.536 432.353L321.518 433.253C322.263 433.308 322.883 434.021 322.899 434.843C322.914 435.666 322.317 436.286 321.565 436.224L321.573 436.232Z" fill="#FBE6A7"/>
<path d="M245.964 305.136L240.008 305.687C239.419 305.741 238.938 305.214 238.93 304.5C238.93 303.794 239.403 303.174 239.993 303.119L245.949 302.553C246.554 302.499 247.043 303.026 247.05 303.748C247.05 304.461 246.569 305.09 245.964 305.144V305.136Z" fill="#FBE6A7"/>
<path d="M218.905 307.626L214.283 308.053C213.732 308.107 213.29 307.587 213.29 306.905C213.29 306.222 213.74 305.625 214.291 305.571L218.913 305.128C219.471 305.074 219.929 305.594 219.929 306.276C219.929 306.967 219.479 307.564 218.921 307.618L218.905 307.626Z" fill="#FBE6A7"/>
<path d="M253.821 300.428L244.987 301.289C244.39 301.351 243.902 300.816 243.894 300.102C243.894 299.388 244.375 298.768 244.972 298.706L253.798 297.813C254.41 297.751 254.914 298.287 254.922 299.008C254.922 299.73 254.434 300.366 253.813 300.428H253.821Z" fill="#FBE6A7"/>
<path d="M232.943 294.23L222.659 295.347C222.093 295.409 221.643 294.897 221.643 294.214C221.643 293.524 222.101 292.919 222.659 292.857L232.935 291.701C233.517 291.639 233.99 292.151 233.99 292.849C233.99 293.547 233.525 294.168 232.943 294.23Z" fill="#FBE6A7"/>
<path d="M172.023 330.556L171.612 386.726C171.612 387.385 171.201 387.913 170.712 387.897C170.224 387.889 169.828 387.346 169.836 386.687L170.263 330.673C170.263 330.029 170.666 329.478 171.154 329.447C171.643 329.416 172.031 329.913 172.031 330.564L172.023 330.556Z" fill="#FBE6A7"/>
<path d="M165.571 345.644L165.408 364.905C165.408 365.557 165.004 366.084 164.524 366.092C164.043 366.092 163.663 365.572 163.663 364.928L163.826 345.722C163.826 345.078 164.221 344.543 164.702 344.519C165.183 344.496 165.563 345.008 165.563 345.652L165.571 345.644Z" fill="#FBE6A7"/>
<path d="M168.743 342.316L168.712 346.366C168.712 347.017 168.308 347.552 167.827 347.576C167.347 347.591 166.959 347.087 166.959 346.435L166.99 342.394C166.99 341.75 167.393 341.207 167.874 341.184C168.355 341.161 168.743 341.665 168.743 342.316Z" fill="#FBE6A7"/>
<path d="M162.879 321.473L162.778 333.341C162.778 333.977 162.383 334.52 161.91 334.551C161.437 334.583 161.057 334.086 161.065 333.45L161.173 321.613C161.173 320.977 161.569 320.434 162.042 320.395C162.515 320.356 162.895 320.845 162.887 321.481L162.879 321.473Z" fill="#FBE6A7"/>
<path d="M165.702 330.417L165.602 342.371C165.602 343.015 165.206 343.558 164.725 343.573C164.244 343.597 163.864 343.092 163.872 342.449L163.973 330.526C163.973 329.89 164.368 329.339 164.849 329.308C165.33 329.277 165.71 329.773 165.702 330.41V330.417Z" fill="#FBE6A7"/>
<path d="M168.681 349.802L168.588 361.896C168.588 362.547 168.184 363.082 167.704 363.09C167.223 363.09 166.835 362.578 166.835 361.927L166.936 349.864C166.936 349.22 167.339 348.677 167.82 348.662C168.301 348.646 168.696 349.158 168.689 349.802H168.681Z" fill="#FBE6A7"/>
<path d="M162.732 337.709L162.624 349.639C162.624 350.283 162.228 350.818 161.755 350.834C161.282 350.849 160.902 350.345 160.91 349.701L161.018 337.802C161.018 337.166 161.414 336.623 161.887 336.599C162.36 336.576 162.74 337.073 162.732 337.709Z" fill="#FBE6A7"/>
<path d="M168.866 326.577L168.773 338.578C168.773 339.222 168.37 339.765 167.889 339.788C167.408 339.811 167.021 339.307 167.028 338.663L167.122 326.694C167.122 326.05 167.517 325.507 168.006 325.468C168.486 325.437 168.874 325.926 168.866 326.57V326.577Z" fill="#FBE6A7"/>
<path d="M168.556 365.495L168.51 371.321C168.51 371.972 168.107 372.5 167.618 372.5C167.129 372.5 166.742 371.972 166.749 371.321L166.796 365.511C166.796 364.859 167.199 364.331 167.68 364.324C168.169 364.324 168.556 364.843 168.549 365.495H168.556Z" fill="#FBE6A7"/>
</g>
<path d="M78.0771 336.16C78.0771 336.417 78.0872 336.685 78.0973 336.943C78.0973 336.943 90.8493 340.157 91.2531 356.701C91.5358 368.507 81.4998 380.406 62.7808 379.015C40.2048 377.583 29.25 364.479 29.25 364.479C32.4506 359.153 35.6209 353.786 38.7913 348.398C38.7913 348.398 45.2228 355.146 52.8962 355.136C56.0766 355.156 57.9748 353.024 57.9546 350.881C57.9344 348.759 55.9858 346.657 52.8154 346.75C50.2711 346.801 47.7066 346.874 45.1622 346.925C45.1319 341.877 45.1117 336.829 45.0612 331.74C48.0296 331.555 50.9778 331.369 53.9462 331.174C57.1065 330.926 58.9642 328.598 58.934 326.445C58.9037 324.23 56.9752 322.252 53.8251 322.561C46.2627 323.282 41.2548 329.247 41.2548 329.247C38.0542 323.973 34.8738 318.77 31.7035 313.578C31.7035 313.578 42.2039 300.031 60.2465 296.745C78.2689 293.407 88.6482 304.914 89.0016 317.142C89.3852 331.513 78.0771 336.16 78.0771 336.16ZM97.0587 336.633C96.3317 311.312 111.143 287.329 133.507 283.229C155.881 279.149 172.844 301.556 174.429 332.379C175.873 362.955 160.879 386.463 137.637 384.702C114.405 382.94 97.725 361.543 97.0587 336.633ZM143.957 334.027C143.604 325.765 139.585 320.552 135.163 320.954C130.761 321.366 127.187 327.012 127.49 334.944C127.783 342.846 131.791 348.027 136.254 347.945C140.696 347.842 144.301 342.289 143.957 334.027ZM182.031 331.936C180.345 300.608 194.44 272.165 216.885 268.137C239.39 264.119 257.281 291.11 259.684 327.774C261.845 364.387 247.397 392.809 224.165 391.13C200.912 389.441 183.576 363.078 182.031 331.936ZM229.092 329.443C228.496 319.409 224.276 313.053 219.843 313.444C215.411 313.836 211.988 320.635 212.533 330.329C213.089 339.992 217.258 346.358 221.751 346.286C226.214 346.183 229.677 339.436 229.092 329.443ZM265.389 263.243C288.843 259.164 311.803 254.579 334.369 249.47C338.751 298.177 342.315 346.843 345.495 395.539C335.257 394.901 325.009 394.262 314.771 393.623C313.045 365.015 311.268 336.427 309.38 307.891C306.018 308.221 302.665 308.551 299.303 308.88C301.121 336.891 302.827 364.912 304.483 392.995C294.215 392.346 283.916 391.707 273.628 391.058C271.215 348.522 268.509 305.934 265.389 263.243ZM374.402 235.274C395.362 230.288 414.99 266.334 419.271 315.772C421.401 343.206 423.824 375.471 425.733 400.371C415.979 399.784 406.256 399.207 396.513 398.63C395.221 392.521 393.928 386.422 392.656 380.365C392.656 380.365 389.193 402.658 377.723 401.865C363.689 400.917 353.431 380.653 351.614 353.992C349.736 327.341 356.925 306.738 378.016 304.337C381.338 303.977 384.65 303.596 387.982 303.225C387.982 303.225 385.296 286.773 375.381 288.194C369.192 289.101 365.234 301.412 365.234 301.412C360.64 288.915 356.006 276.574 351.311 264.335C351.311 264.335 357.924 239.291 374.402 235.274ZM385.72 354.785C388.86 354.734 391.455 347.11 390.051 328.948C383.186 329.402 380.621 337.035 381.288 345.946C381.631 350.407 383.842 354.837 385.72 354.785ZM504.971 308.551C509.322 374.513 499.67 410.23 485.727 409.231C473.055 408.345 465.937 382.363 465.937 382.363C468.744 417.596 471.733 452.694 474.822 487.617C464.423 485.66 454.023 483.744 443.664 481.828C436.809 397.559 430.428 313.362 422.754 228.876C431.983 226.795 441.241 224.756 450.51 222.695C455.063 242.444 455.063 242.444 455.063 242.444C455.063 242.444 457.598 215.906 470.35 213.032C484.424 209.859 500.609 243.062 504.971 308.551ZM473.348 311.167C472.116 293.757 468.31 285.464 464.514 285.928C460.707 286.412 458.213 295.303 459.496 312.342C460.738 329.402 464.504 337.798 468.27 337.622C472.036 337.458 474.58 328.608 473.348 311.167ZM586.339 195.117C583.835 231.544 579.282 267.292 574.041 302.648C582.775 339.219 593.205 376.223 605.25 413.64C591.761 412.228 578.807 410.961 566.378 409.766C559.25 381.869 552.829 354.25 547.053 326.929C548.457 354.126 550.496 381.364 553.02 408.643C542.621 407.84 532.302 407.077 522.044 406.356C516.834 340.476 513.23 275.317 508.171 210.199C518.561 208.005 529.011 205.831 539.521 203.647C541.965 229.175 543.752 254.765 545.095 280.447C547.498 254.198 549.497 227.856 550.789 201.37C562.43 199.125 574.274 197.044 586.339 195.117Z" fill="#DE1923"/>
<defs>
<clipPath id="clip0_592_170">
<rect width="445.5" height="443.25" fill="white" transform="translate(112.5 112.992)"/>
</clipPath>
</defs>
</svg>
