<svg width="1440" height="2076" viewBox="0 0 1440 2076" fill="none" xmlns="http://www.w3.org/2000/svg">
<g clip-path="url(#clip0_592_250)">
<path d="M-89 1236C-78.6755 1235.99 -50.9904 1234.91 -9.19306 1216.64C13.013 1206.93 46.53 1185.92 86.8611 1157.81C127.192 1129.69 172.511 1093.43 214.599 1053.81C256.686 1014.19 294.17 972.324 317.934 943.845C341.699 915.367 350.607 901.547 356.434 891.915C362.26 882.284 1073.63 144.555 1076 136" stroke="#7297A0" stroke-width="110.25" stroke-linecap="round"/>
<path d="M697 90C697.605 105.297 940.916 1119.41 963.406 1167.86C980.99 1205.74 1017.51 1267.47 1045.09 1312.09C1072.67 1356.72 1091.85 1381.56 1113.35 1406.3C1134.86 1431.04 1158.12 1454.93 1194.97 1486.63C1231.82 1518.32 1281.57 1557.09 1326.83 1588.62C1372.09 1620.14 1411.36 1643.25 1447.12 1661.92C1482.89 1680.59 1513.96 1694.14 1547 1705" stroke="#7297A0" stroke-width="180" stroke-linecap="round"/>
</g>
<defs>
<clipPath id="clip0_592_250">
<rect width="1440" height="2076" fill="white"/>
</clipPath>
</defs>
</svg>
