<svg width="421" height="464" viewBox="0 0 421 464" fill="none" xmlns="http://www.w3.org/2000/svg">
<path d="M289.125 62.4376C289.125 62.4376 326.785 79.9669 353.821 94.0195C383.026 109.199 420.188 120.938 420.188 120.938C420.188 120.938 406.816 151.511 398.813 175.5C393.051 192.769 392.063 221.625 392.063 221.625C392.063 221.625 358.875 171.562 318.375 140.625C291.712 120.257 236.586 106.365 236.586 106.365L289.125 62.4376Z" fill="#7297A0"/>
<path d="M88.3125 0C88.3125 0 165.248 110.43 224.438 149.625C279.639 186.179 400.5 167.625 400.5 167.625L290.813 228.375L213.75 191.812L49.5 90C49.5 90 69.1875 64.6875 75.9376 42.75C81.2543 25.471 88.3125 0 88.3125 0Z" fill="#7297A0"/>
<path d="M40.5 44.3686C40.5 44.3686 133.748 111.559 192.938 150.754C248.139 187.307 369 168.754 369 168.754L259.312 229.504L182.25 192.941L0 75.3747C0 75.3747 13.2952 67.8403 22.5 60.6811C32.625 52.8061 40.5 44.3686 40.5 44.3686Z" fill="#7297A0"/>
<path d="M357.75 177.75H379.125V205.875H357.75V177.75Z" fill="#7297A0"/>
<path d="M32.9239 158.062C32.9239 158.062 68.238 187.652 110.813 200.25C206.263 228.494 388.688 183.375 388.688 183.375L362.25 234C362.25 234 242.748 264.035 165.375 259.312C112.811 256.104 32.9239 234 32.9239 234C32.9239 234 43.3126 219.987 43.3126 208.125C43.3126 190.332 32.9239 158.062 32.9239 158.062Z" fill="#7297A0"/>
<path d="M339.188 219.938L392.625 183.375V463.5L210.375 435.938C210.375 435.938 282.938 387.562 326.25 343.125C369.563 298.688 339.188 219.938 339.188 219.938Z" fill="#7297A0"/>
<path d="M65.562 57.8062C65.5916 58.6891 65.7781 60.7032 67.6191 63.8278C69.2444 66.5862 72.6332 71.5053 78.8721 78.5647C85.111 85.624 94.1895 94.6181 109.789 105.52C125.389 116.421 147.235 128.958 159.893 135.991C172.552 143.024 175.361 144.173 179.148 145.766" stroke="#1E223D" stroke-width="5.625" stroke-linecap="round"/>
<path d="M368.234 187.64C368.244 187.756 368.303 188.156 368.301 188.741C368.264 188.315 368.241 187.947 368.234 187.64C368.232 187.622 368.232 187.611 368.233 187.607C368.233 187.618 368.234 187.629 368.234 187.64Z" fill="#FBE6A7"/>
<path d="M353.383 216.487C353.586 215.725 361.388 203.64 367.33 192.61C368.703 190.063 368.211 187.679 368.233 187.607C368.299 190.919 370.227 201.567 373.215 214.149C374.32 218.668 374.59 219.4 375.031 219.646" stroke="#1E223D" stroke-width="5.625" stroke-linecap="round"/>
</svg>
