<svg width="1440" height="1181" viewBox="0 0 1440 1181" fill="none" xmlns="http://www.w3.org/2000/svg">
<g clip-path="url(#clip0_592_446)">
<path d="M690.1 395.681H447.257V884.668H690.1V395.681Z" fill="#1E223D"/>
<path d="M931.437 884.669V695.908H662.71V884.669H931.437Z" fill="#1E223D"/>
<path d="M930.707 417.291V405.003C930.707 369.629 902.03 340.952 866.654 340.952H511.31C475.934 340.952 447.257 369.629 447.257 405.003V417.291C447.257 452.665 475.934 481.341 511.31 481.341H866.654C902.03 481.341 930.707 452.665 930.707 417.291Z" fill="#1E223D"/>
<path d="M886.305 129.653H849.09C808.08 129.653 774.834 162.897 774.834 203.905V407.089C774.834 448.098 808.08 481.342 849.09 481.342H886.305C927.315 481.342 960.56 448.098 960.56 407.089V203.905C960.56 162.897 927.315 129.653 886.305 129.653Z" fill="#1E223D"/>
<path d="M954.78 562.806H817.201C795.662 562.806 778.201 580.266 778.201 601.805V845.67C778.201 867.208 795.662 884.669 817.201 884.669H954.78C976.319 884.669 993.78 867.208 993.78 845.67V601.805C993.78 580.266 976.319 562.806 954.78 562.806Z" fill="#1E223D"/>
<path d="M766.125 1026.38C841.885 1037.68 917.615 1043.2 993.375 1054.5V841.312L766.125 841.313V1026.38Z" fill="#1E223D"/>
<path d="M766.125 1029.2V1029.18C766.125 1010.54 784.734 995.438 807.689 995.438H1020.44C1043.39 995.438 1062 1010.54 1062 1029.18V1029.2C1062 1047.83 1043.39 1062.94 1020.44 1062.94H807.689C784.734 1062.94 766.125 1047.83 766.125 1029.2Z" fill="#1E223D"/>
<path d="M913.168 592.356V592.331C913.168 576.025 899.948 562.806 883.641 562.806H765.964C749.657 562.806 736.438 576.025 736.438 592.331V592.356C736.438 608.663 749.657 621.882 765.964 621.882H883.641C899.948 621.882 913.168 608.663 913.168 592.356Z" fill="#1E223D"/>
<path d="M925.783 705.155H925.808C942.115 705.155 955.334 691.936 955.334 675.63V557.956C955.334 541.65 942.115 528.431 925.808 528.431H925.783C909.476 528.431 896.256 541.65 896.256 557.956V675.63C896.256 691.936 909.476 705.155 925.783 705.155Z" fill="#1E223D"/>
<path d="M960.56 252.301C1036.2 252.301 1097.51 200.764 1097.51 137.216H823.584C823.584 200.789 884.898 252.301 960.535 252.301H960.56Z" fill="#1E223D"/>
<path d="M974.406 137.191H823.584C823.584 200.764 884.898 252.276 960.535 252.276C980.99 252.276 1000.39 248.482 1017.83 241.723L974.381 137.191H974.406Z" fill="#7297A0"/>
<path d="M899.272 289.415H1076C1076 268.911 1062.78 252.301 1046.48 252.301H928.798C912.489 252.301 899.272 268.911 899.272 289.415Z" fill="#7297A0"/>
<path d="M556.19 635.802H524.05C481.638 635.802 447.257 670.183 447.257 712.593V910.701C447.257 953.111 481.638 987.492 524.05 987.492H556.19C598.601 987.492 632.983 953.111 632.983 910.701V712.593C632.983 670.183 598.601 635.802 556.19 635.802Z" fill="#1E223D"/>
<path d="M733.196 987.492V911.631H542.495V987.492H733.196Z" fill="#1E223D"/>
<path d="M960.56 103.695H774.834V411.16H960.56V103.695Z" fill="#1E223D"/>
<path d="M578.052 243.758C594.888 193.05 611.699 142.317 628.535 91.6089H837.656V243.758H578.026H578.052Z" fill="#1E223D"/>
<path d="M608.934 289.415C625.57 223.681 642.205 157.946 658.84 92.2118C622.454 84.4221 596.32 92.0108 582.7 97.5138C521.738 122.164 481.532 198.503 482.286 289.415H608.934Z" fill="#1E223D"/>
<path d="M722.441 911.631V1088.35C742.946 1088.35 759.556 1075.14 759.556 1058.83V941.156C759.556 924.848 742.946 911.631 722.441 911.631Z" fill="#1E223D"/>
<path d="M1015.87 1181.06V1004.44C1041.36 1004.44 1062 1017.65 1062 1033.95V1151.55C1062 1167.85 1041.36 1181.06 1015.87 1181.06Z" fill="#1E223D"/>
<path d="M588.631 289.415H765.361C765.361 268.911 752.143 252.301 735.835 252.301H618.157C601.849 252.301 588.631 268.911 588.631 289.415Z" fill="#1E223D"/>
<path d="M400.568 322.81V292.983H257.384V322.81H400.568Z" fill="#1E223D"/>
<path d="M960.535 115.48V85.6536L183.481 85.6536V115.48L960.535 115.48Z" fill="#1E223D"/>
<path d="M183.481 743.626H213.309L213.309 85.6537H183.481L183.481 743.626Z" fill="#1E223D"/>
<path d="M402.452 743.525V713.699H184.31V743.525H402.452Z" fill="#1E223D"/>
<path d="M372.625 737.193H402.452L402.452 293.009H372.625L372.625 737.193Z" fill="#1E223D"/>
<path d="M250.198 428.121H280.026V293.009H250.198L250.198 428.121Z" fill="#1E223D"/>
<path d="M338.374 428.121V398.294H251.303V428.121H338.374Z" fill="#1E223D"/>
<path d="M764.23 188.929C804.888 115.355 777.774 30.9754 703.645 0.445068L556.391 266.876C630.52 297.406 723.572 262.503 764.23 188.929Z" fill="#7297A0"/>
<path d="M735.335 252H645.061C638.041 264.658 631.02 277.342 624 290H766C766 269.006 752.272 252 735.335 252Z" fill="#7297A0"/>
<path d="M758.576 187.07C797.4 116.46 773.477 36.5789 705.127 8.63672L564.482 264.312C632.832 292.255 719.727 257.679 758.551 187.07H758.576Z" fill="#1E223D"/>
<path d="M619.288 284.993C610.995 285.897 578.454 288.41 552.194 266.7C521.814 241.572 512.215 194.231 530.885 150.835H634.968V276.5C629.741 279.339 624.515 282.153 619.288 284.993Z" fill="#1E223D"/>
<path d="M571.996 963.846H608.432C624.739 963.846 637.958 950.627 637.958 934.321V770.839C637.958 754.533 624.739 741.314 608.432 741.314H571.996C555.689 741.314 542.47 754.533 542.47 770.839V934.321C542.47 950.627 555.689 963.846 571.996 963.846Z" fill="#7297A0"/>
<path d="M561.617 970.254H605.869C621.163 970.254 633.561 957.856 633.561 942.563V773.026C633.561 757.732 621.163 745.335 605.869 745.335H561.617C546.323 745.335 533.925 757.732 533.925 773.026V942.563C533.925 957.856 546.323 970.254 561.617 970.254Z" fill="#1E223D"/>
<path d="M662.735 930.954H590.214V974.802H662.735V930.954Z" fill="#1E223D"/>
<path d="M571.745 727.343H499.223V771.191H571.745V727.343Z" fill="#1E223D"/>
<path d="M993.375 963.938C917.615 945.02 841.885 926.103 766.125 907.186V885.188L880.135 885.188L993.375 885.188C993.375 927.776 993.375 921.349 993.375 963.938Z" fill="#7297A0"/>
<path d="M669.042 884.669C658.363 844.238 647.683 803.832 637.003 763.402C637.28 768.427 637.556 773.453 637.832 778.478V884.669H669.042Z" fill="#7297A0"/>
<path d="M993.781 601.83C993.781 599.267 993.454 596.754 992.901 594.341C992.248 594.316 991.595 594.241 990.941 594.241H952.645C928.622 594.241 909.147 613.414 909.147 637.084V672.665H993.781V601.83Z" fill="#FBE6A7"/>
<path d="M524.503 340.952V524.988C524.503 541.296 537.72 554.514 554.029 554.514C570.337 554.514 583.555 541.296 583.555 524.988V340.952H524.478H524.503Z" fill="#7297A0"/>
<path d="M722.441 884.669V778.303C722.441 768.88 712.566 761.241 700.404 761.241C688.241 761.241 678.366 768.88 678.366 778.303V884.669H722.467H722.441Z" fill="#7297A0"/>
<path d="M447.257 695.356H522.417C529.076 695.356 534.478 685.48 534.478 673.318C534.478 661.156 529.076 651.281 522.417 651.281H447.257V695.381V695.356Z" fill="#7297A0"/>
<path d="M522.417 765.01C533.811 765.01 543.047 755.774 543.047 744.38C543.047 732.986 533.811 723.75 522.417 723.75C511.023 723.75 501.786 732.986 501.786 744.38C501.786 755.774 511.023 765.01 522.417 765.01Z" fill="#7297A0"/>
<path d="M960.561 340.952H849.09C839.214 340.952 831.198 350.828 831.198 362.989C831.198 375.176 839.214 385.027 849.09 385.027H960.561V340.927V340.952Z" fill="#7297A0"/>
<path d="M823.559 157.82C834.953 157.82 844.19 148.584 844.19 137.191C844.19 125.797 834.953 116.561 823.559 116.561C812.165 116.561 802.928 125.797 802.928 137.191C802.928 148.584 812.165 157.82 823.559 157.82Z" fill="#7297A0"/>
<path d="M833.625 1041.56C821.199 1041.56 811.125 1032.24 811.125 1020.75C811.125 1009.26 821.199 999.938 833.625 999.938C846.051 999.938 856.125 1009.26 856.125 1020.75C856.125 1032.24 846.051 1041.56 833.625 1041.56Z" fill="#7297A0"/>
<path d="M271.457 713.9H183.506V743.651H271.457C279.674 743.651 286.333 736.992 286.333 728.775C286.333 720.558 279.674 713.9 271.457 713.9Z" fill="#7297A0"/>
<path d="M844.5 592.331C844.5 592.331 844.5 592.331 772.221 570.294C758.099 570.294 746.665 580.169 746.665 592.331C746.665 604.493 758.099 614.368 772.221 614.368C844.5 592.331 844.5 592.331 844.5 592.331Z" fill="#7297A0"/>
<path d="M280.051 322.81H324.051V292.983H250.223V369.271H280.051V322.81Z" fill="#7297A0"/>
<path d="M252.786 85.6533C252.359 86.7087 252.058 87.7892 252.058 88.8948C252.058 100.303 276.005 109.525 305.531 109.525C335.058 109.525 359.005 100.278 359.005 88.8948C359.005 87.7892 358.704 86.7087 358.277 85.6533H252.761H252.786Z" fill="#7297A0"/>
<path d="M552.195 289.415C553.376 285.671 554.054 281.525 554.054 277.128C554.054 261.096 545.284 248.08 534.454 248.08C523.623 248.08 514.854 261.096 514.854 277.128C514.854 281.525 515.532 285.671 516.713 289.415H552.22H552.195Z" fill="#7297A0"/>
<path d="M993.781 672.665H909.147C909.147 694.577 930.331 712.317 956.44 712.317H967.295C977.121 712.317 986.217 709.804 993.781 705.507V672.64V672.665Z" fill="#FBE6A7"/>
<path d="M925.808 603.639C935.009 603.639 942.468 596.18 942.468 586.979C942.468 577.778 935.009 570.319 925.808 570.319C916.607 570.319 909.147 577.778 909.147 586.979C909.147 596.18 916.607 603.639 925.808 603.639Z" fill="#FBE6A7"/>
<path d="M925.808 600.925C933.51 600.925 939.754 594.681 939.754 586.979C939.754 579.277 933.51 573.033 925.808 573.033C918.105 573.033 911.861 579.277 911.861 586.979C911.861 594.681 918.105 600.925 925.808 600.925Z" fill="#1E223D"/>
<path d="M958.52 594.216C970.28 593.789 982.015 593.387 993.776 592.959C994.831 597.281 995.736 602.483 996.087 608.363C996.59 616.756 995.811 623.992 994.781 629.596C982.694 617.786 970.607 606.001 958.52 594.191V594.216Z" fill="#7297A0"/>
<path d="M865.35 781.688H783.833C772.189 781.688 762.75 791.121 762.75 802.757C762.75 814.394 772.189 823.827 783.833 823.827H865.35C876.994 823.827 886.433 814.394 886.433 802.757C886.433 791.121 876.994 781.688 865.35 781.688Z" fill="#7297A0"/>
<path d="M921.837 865.295C933.231 865.295 942.467 856.059 942.467 844.665C942.467 833.271 933.231 824.035 921.837 824.035C910.443 824.035 901.206 833.271 901.206 844.665C901.206 856.059 910.443 865.295 921.837 865.295Z" fill="#7297A0"/>
<path d="M640 278.5C640 281.538 638.209 284 636 284C633.791 284 630 284.038 630 281C630 277.962 633.791 273 636 273C638.209 273 640 275.462 640 278.5Z" fill="#7297A0"/>
</g>
<defs>
<clipPath id="clip0_592_446">
<rect width="1440" height="1181" fill="white"/>
</clipPath>
</defs>
</svg>
