<svg width="88" height="284" viewBox="0 0 88 284" fill="none" xmlns="http://www.w3.org/2000/svg">
<path d="M87 0.71875C87.1553 0.71875 87.2812 0.84467 87.2812 1C87.2812 1.15533 87.1553 1.28125 87 1.28125H31C30.8447 1.28125 30.7188 1.15533 30.7188 1C30.7188 0.84467 30.8447 0.71875 31 0.71875H87Z" fill="#DE1923"/>
<path d="M87 73.7188C87.1553 73.7188 87.2812 73.8447 87.2812 74C87.2812 74.1553 87.1553 74.2812 87 74.2812H32C31.8447 74.2812 31.7188 74.1553 31.7188 74C31.7188 73.8447 31.8447 73.7188 32 73.7188H87Z" fill="#DE1923"/>
<path d="M87 99.7188C87.1553 99.7188 87.2812 99.8447 87.2812 100C87.2812 100.155 87.1553 100.281 87 100.281H32C31.8447 100.281 31.7188 100.155 31.7188 100C31.7188 99.8447 31.8447 99.7188 32 99.7188H87Z" fill="#DE1923"/>
<path d="M87 172.719C87.1553 172.719 87.2813 172.845 87.2813 173C87.2813 173.155 87.1553 173.281 87 173.281L30 173.281C29.8447 173.281 29.7188 173.155 29.7188 173C29.7188 172.845 29.8447 172.719 30 172.719L87 172.719Z" fill="#DE1923"/>
<path d="M87 282.719C87.1553 282.719 87.2812 282.845 87.2812 283C87.2812 283.155 87.1553 283.281 87 283.281L1 283.281C0.84467 283.281 0.71875 283.155 0.71875 283C0.71875 282.845 0.84467 282.719 1 282.719L87 282.719Z" fill="#DE1923"/>
<path d="M75.5 69.5547V74.125H66.5V69.5547H75.5ZM75.5 51.2734V60.4141H66.5V51.2734H75.5ZM75.5 32.9922V42.1328H66.5V32.9922H75.5ZM75.5 14.7109V23.8516H66.5V14.7109H75.5ZM75.5 1V5.57031H66.5V1H75.5Z" fill="#DE1923"/>
<path d="M75.5 168.555V173.125H66.5V168.555H75.5ZM75.5 150.273V159.414H66.5V150.273H75.5ZM75.5 131.992V141.133H66.5V131.992H75.5ZM75.5 113.711V122.852H66.5V113.711H75.5ZM75.5 100V104.57H66.5V100H75.5Z" fill="#DE1923"/>
<path d="M75.5 278.656V283.25H66.5V278.656H75.5ZM75.5 260.281V269.469H66.5V260.281H75.5ZM75.5 241.906V251.094H66.5V241.906H75.5ZM75.5 223.531V232.719H66.5V223.531H75.5ZM75.5 205.156V214.344H66.5V205.156H75.5ZM75.5 186.781V195.969H66.5V186.781H75.5ZM75.5 173V177.594H66.5V173H75.5Z" fill="#DE1923"/>
</svg>
