<svg width="93" height="264" viewBox="0 0 93 264" fill="none" xmlns="http://www.w3.org/2000/svg">
<path d="M92 63.7188C92.1553 63.7188 92.2812 63.8447 92.2812 64C92.2812 64.1553 92.1553 64.2812 92 64.2812H22C21.8447 64.2812 21.7188 64.1553 21.7188 64C21.7188 63.8447 21.8447 63.7188 22 63.7188H92Z" fill="#DE1923"/>
<path d="M92 136.719C92.1553 136.719 92.2812 136.845 92.2812 137C92.2812 137.155 92.1553 137.281 92 137.281H35C34.8447 137.281 34.7188 137.155 34.7188 137C34.7188 136.845 34.8447 136.719 35 136.719H92Z" fill="#DE1923"/>
<path d="M92 188.719C92.1553 188.719 92.2812 188.845 92.2812 189C92.2812 189.155 92.1553 189.281 92 189.281H38C37.8447 189.281 37.7188 189.155 37.7188 189C37.7188 188.845 37.8447 188.719 38 188.719H92Z" fill="#DE1923"/>
<path d="M92 262.719C92.1553 262.719 92.2812 262.845 92.2812 263C92.2812 263.155 92.1553 263.281 92 263.281H35C34.8447 263.281 34.7188 263.155 34.7188 263C34.7188 262.845 34.8447 262.719 35 262.719H92Z" fill="#DE1923"/>
<path d="M92.125 0.71875C92.2803 0.71875 92.4062 0.84467 92.4062 1C92.4062 1.15533 92.2803 1.28125 92.125 1.28125H1C0.84467 1.28125 0.71875 1.15533 0.71875 1C0.71875 0.84467 0.84467 0.71875 1 0.71875H92.125Z" fill="#DE1923"/>
<path d="M79.5006 132.555L79.5001 137.126L70.5001 137.125L70.5006 132.554L79.5006 132.555ZM79.5028 114.274L79.5017 123.415L70.5017 123.414L70.5028 114.273L79.5028 114.274ZM79.505 95.9928L79.5039 105.133L70.5039 105.132L70.505 95.9917L79.505 95.9928ZM79.5072 77.7115L79.5061 86.8521L70.5061 86.8511L70.5072 77.7104L79.5072 77.7115ZM79.5088 64.0006L79.5082 68.5709L70.5082 68.5698L70.5088 63.9995L79.5088 64.0006Z" fill="#DE1923"/>
<path d="M79.5 60.0625L79.5 64L70.5 64L70.5 60.0625L79.5 60.0625ZM79.5 44.3125L79.5 52.1875L70.5 52.1875L70.5 44.3125L79.5 44.3125ZM79.5 28.5625L79.5 36.4375L70.5 36.4375L70.5 28.5625L79.5 28.5625ZM79.5 12.8125L79.5 20.6875L70.5 20.6875L70.5 12.8125L79.5 12.8125ZM79.5 1L79.5 4.9375L70.5 4.9375L70.5 1L79.5 1Z" fill="#DE1923"/>
<path d="M79.5005 258.376L79.4999 263.001L70.4999 263L70.5005 258.375L79.5005 258.376ZM79.5027 239.876L79.5016 249.126L70.5016 249.125L70.5027 239.875L79.5027 239.876ZM79.5049 221.376L79.5038 230.626L70.5038 230.625L70.5049 221.375L79.5049 221.376ZM79.5071 202.876L79.506 212.126L70.506 212.125L70.5071 202.875L79.5071 202.876ZM79.5087 189.001L79.5082 193.626L70.5082 193.625L70.5087 189L79.5087 189.001Z" fill="#DE1923"/>
</svg>
