<svg width="77" height="219" viewBox="0 0 77 219" fill="none" xmlns="http://www.w3.org/2000/svg">
<path d="M10.0387 120.237L7.89713 123.946L0.102905 119.446L2.24451 115.737L10.0387 120.237ZM18.6051 105.399L14.3219 112.818L6.52771 108.318L10.8109 100.899L18.6051 105.399ZM27.1711 90.5628L22.8879 97.9815L15.0936 93.4815L19.3768 86.0628L27.1711 90.5628ZM35.7375 75.7254L31.4543 83.1441L23.66 78.6441L27.9432 71.2254L35.7375 75.7254ZM44.3034 60.8887L40.0202 68.3075L32.226 63.8075L36.5092 56.3887L44.3034 60.8887ZM52.8693 46.0521L48.5866 53.47L40.7924 48.97L45.0751 41.5521L52.8693 46.0521ZM61.4357 31.2147L57.1525 38.6334L49.3583 34.1334L53.6415 26.7147L61.4357 31.2147ZM70.0016 16.3781L65.7189 23.796L57.9247 19.296L62.2074 11.8781L70.0016 16.3781ZM76.4264 5.25L74.2848 8.95936L66.4906 4.45936L68.6322 0.75L76.4264 5.25Z" fill="#DE1923"/>
<path d="M62.196 209.798L64.5568 213.887L56.7626 218.387L54.4017 214.298L62.196 209.798ZM52.7526 193.442L57.4743 201.62L49.6801 206.12L44.9584 197.942L52.7526 193.442ZM43.3092 177.086L48.0309 185.264L40.2367 189.764L35.515 181.586L43.3092 177.086ZM33.8664 160.73L38.5876 168.907L30.7933 173.407L26.0721 165.23L33.8664 160.73ZM24.423 144.374L29.1447 152.552L21.3505 157.052L16.6288 148.874L24.423 144.374ZM14.9797 128.017L19.7013 136.195L11.9071 140.695L7.18542 132.517L14.9797 128.017ZM7.89713 115.75L10.258 119.839L2.46374 124.339L0.102905 120.25L7.89713 115.75Z" fill="#DE1923"/>
</svg>
