<svg width="115" height="202" viewBox="0 0 115 202" fill="none" xmlns="http://www.w3.org/2000/svg">
<path d="M109.891 190.5H114.625V199.5H109.891V190.5ZM90.9531 190.5H100.422V199.5H90.9531V190.5ZM72.0156 190.5H81.4844V199.5H72.0156V190.5ZM53.0781 190.5H62.5469V199.5H53.0781V190.5ZM34.1406 190.5H43.6094V199.5H34.1406V190.5ZM15.2031 190.5H24.6719V199.5H15.2031V190.5ZM1 190.5H5.73438L5.73438 199.5H1L1 190.5Z" fill="#DE1923"/>
<path d="M10.5523 196.65L9.34664 201.149L0.653309 198.82L1.85894 194.321L10.5523 196.65ZM15.3748 178.652L12.9635 187.651L4.2702 185.322L6.68147 176.323L15.3748 178.652ZM20.1976 160.653L17.7863 169.652L9.09298 167.323L11.5042 158.324L20.1976 160.653ZM25.0204 142.654L22.6091 151.653L13.9158 149.324L16.327 140.325L25.0204 142.654ZM29.8431 124.655L27.4316 133.655L18.7383 131.326L21.1498 122.326L29.8431 124.655ZM34.6659 106.657L32.2544 115.657L23.5611 113.327L25.9726 104.327L34.6659 106.657ZM39.4884 88.6587L37.0772 97.6576L28.3838 95.3283L30.7951 86.3293L39.4884 88.6587ZM44.3112 70.6598L41.9 79.6588L33.2066 77.3294L35.6179 68.3305L44.3112 70.6598ZM49.134 52.661L46.7227 61.6599L38.0294 59.3306L40.4407 50.3316L49.134 52.661ZM53.9568 34.6621L51.5453 43.662L42.8519 41.3326L45.2635 32.3327L53.9568 34.6621ZM58.7793 16.6642L56.368 25.6632L47.6747 23.3338L50.086 14.3348L58.7793 16.6642ZM62.3965 3.16482L61.1908 7.6643L52.4975 5.33493L53.7031 0.835449L62.3965 3.16482Z" fill="#DE1923"/>
</svg>
