<svg width="165" height="273" viewBox="0 0 165 273" fill="none" xmlns="http://www.w3.org/2000/svg">
<path d="M164 98.7188C164.155 98.7188 164.281 98.8447 164.281 99C164.281 99.1553 164.155 99.2812 164 99.2812H17C16.8447 99.2812 16.7188 99.1553 16.7188 99C16.7188 98.8447 16.8447 98.7188 17 98.7188H164Z" fill="#DE1923"/>
<path d="M164 145.713C164.155 145.713 164.281 145.838 164.281 145.994C164.281 146.149 164.155 146.275 164 146.275L1.00002 146.281C0.844691 146.281 0.718767 146.155 0.718761 146C0.718755 145.845 0.84467 145.719 1 145.719L164 145.713Z" fill="#DE1923"/>
<path d="M164 201.718C164.155 201.718 164.281 201.844 164.281 201.999C164.281 202.155 164.155 202.28 164 202.28L1 202.281C0.844673 202.281 0.718752 202.155 0.718751 202C0.718751 201.845 0.84467 201.719 1 201.719L164 201.718Z" fill="#DE1923"/>
<path d="M164 249.719C164.155 249.719 164.281 249.845 164.281 250C164.281 250.156 164.155 250.282 164 250.282L18 250.281C17.8447 250.281 17.7187 250.155 17.7187 250C17.7187 249.845 17.8447 249.719 18 249.719L164 249.719Z" fill="#DE1923"/>
<path d="M164 271.72C164.155 271.72 164.281 271.846 164.281 272.001C164.281 272.156 164.155 272.282 164 272.282L20 272.281C19.8447 272.281 19.7187 272.155 19.7187 272C19.7187 271.845 19.8447 271.719 20 271.719L164 271.72Z" fill="#DE1923"/>
<path d="M164 0.71875C164.155 0.71875 164.281 0.84467 164.281 1C164.281 1.15533 164.155 1.28125 164 1.28125L106 1.28125C105.845 1.28125 105.719 1.15533 105.719 1C105.719 0.84467 105.845 0.71875 106 0.71875L164 0.71875Z" fill="#DE1923"/>
<path d="M150.5 95.8799V100.005H141.5V95.8799H150.5ZM150.5 79.3789V87.6289H141.5V79.3789H150.5ZM150.5 62.8779V71.1279H141.5V62.8779H150.5ZM150.5 46.377V54.6279H141.5V46.377H150.5ZM150.5 29.876V38.127H141.5V29.876H150.5ZM150.5 13.376V21.626H141.5V13.376H150.5ZM150.5 1V5.125H141.5V1H150.5Z" fill="#DE1923"/>
<path d="M150.5 142.083V146H141.5V142.083H150.5ZM150.5 126.417V134.25H141.5V126.417H150.5ZM150.5 110.75V118.583H141.5V110.75H150.5ZM150.5 99V102.917H141.5V99H150.5Z" fill="#DE1923"/>
<path d="M150.5 197.25V202H141.5V197.25H150.5ZM150.5 178.25V187.75H141.5V178.25H150.5ZM150.5 159.25V168.75H141.5V159.25H150.5ZM150.5 145V149.75H141.5V145H150.5Z" fill="#DE1923"/>
<path d="M150.5 266.5V272H141.5V266.5H150.5ZM150.5 250V255.5H141.5V250H150.5Z" fill="#DE1923"/>
</svg>
