<svg width="177" height="273" viewBox="0 0 177 273" fill="none" xmlns="http://www.w3.org/2000/svg">
<path d="M176 0.71875C176.155 0.718753 176.281 0.844671 176.281 1C176.281 1.15533 176.155 1.28125 176 1.28125H3C2.84467 1.28125 2.71875 1.15533 2.71875 1C2.71875 0.84467 2.84467 0.71875 3 0.71875H176Z" fill="#DE1923"/>
<path d="M176 102.719C176.155 102.719 176.281 102.845 176.281 103C176.281 103.155 176.155 103.281 176 103.281L1 103.281C0.84467 103.281 0.71875 103.155 0.71875 103C0.71875 102.845 0.84467 102.719 1 102.719L176 102.719Z" fill="#DE1923"/>
<path d="M176 147.719C176.155 147.719 176.281 147.845 176.281 148C176.281 148.155 176.155 148.281 176 148.281L16 148.281C15.8447 148.281 15.7188 148.155 15.7188 148C15.7188 147.845 15.8447 147.719 16 147.719L176 147.719Z" fill="#DE1923"/>
<path d="M176 271.719C176.155 271.719 176.281 271.845 176.281 272C176.281 272.155 176.155 272.281 176 272.281H122C121.845 272.281 121.719 272.155 121.719 272C121.719 271.845 121.845 271.719 122 271.719H176Z" fill="#DE1923"/>
<path d="M164.5 98.75V103H155.5V98.75H164.5ZM164.5 81.75V90.25H155.5V81.75H164.5ZM164.5 64.75V73.25H155.5V64.75H164.5ZM164.5 47.75V56.25H155.5V47.75H164.5ZM164.5 30.75V39.25H155.5V30.75H164.5ZM164.5 13.75V22.25H155.5V13.75H164.5ZM164.5 1V5.25H155.5V1H164.5Z" fill="#DE1923"/>
<path d="M164.5 267.33V271.75H155.5V267.33H164.5ZM164.5 249.651V258.491H155.5V249.651H164.5ZM164.5 231.974V240.812H155.5V231.974H164.5ZM164.5 214.295V223.134H155.5V214.295H164.5ZM164.5 196.616V205.455H155.5V196.616H164.5ZM164.5 178.938V187.776H155.5V178.938H164.5ZM164.5 161.259V170.099H155.5V161.259H164.5ZM164.5 148V152.42H155.5V148H164.5Z" fill="#DE1923"/>
</svg>
