<svg width="762" height="542" viewBox="0 0 762 542" fill="none" xmlns="http://www.w3.org/2000/svg">
<path d="M691.239 139.784L160.077 17.1557C151.13 55.9106 112.418 80.079 73.6315 71.1245L17.1499 315.774C55.9361 324.728 80.1358 363.421 71.1885 402.176L602.35 524.804C611.297 486.049 650.01 461.881 688.796 470.835L745.278 226.186C706.491 217.232 682.292 178.539 691.239 139.784Z" fill="#DE1923"/>
<path d="M508.313 503.094L513.805 490.385L513.169 504.215L522.862 506.453L549.529 390.947L525.287 385.35L498.62 500.856L508.313 503.094Z" fill="#1E223D"/>
<path d="M566.869 468.727L552.261 502.726L575.635 401.48L588.469 404.443L565.095 505.689L566.869 468.727Z" fill="#FBE6A7"/>
<path d="M581.094 410.079L573.972 440.928L574.148 437.198L572.672 440.628L579.794 409.779L581.094 410.079ZM595.161 401.482L570.919 395.885L544.252 511.391L553.945 513.629L559.437 500.92L558.801 514.75L568.494 516.988L595.161 401.482Z" fill="#1E223D"/>
<path d="M473.03 405.265C472.147 415.593 466.398 423.814 459.122 424.716C462.185 426.632 465.732 427.533 469.406 427.049C478.909 425.842 485.789 415.976 485.339 404.665L473.034 405.246L473.03 405.265Z" fill="#1E223D"/>
<path d="M610.627 412.562L555.013 399.723L541.515 458.189L597.129 471.028L610.627 412.562Z" fill="#7297A0"/>
<path d="M691.603 139.888L622.176 440.608C607.206 437.072 592.254 433.541 577.284 430.005C576.904 433.29 575.621 440.398 570.222 447.055C561.188 458.161 547.89 459.023 545.596 459.131L514.996 452.067C497.381 448 486.499 430.121 490.65 412.139L517.575 295.516L433.11 276.015L451.938 194.464L432.546 189.987C432.479 190.451 432.37 190.925 432.26 191.398L400.527 184.072C403.204 172.476 412.48 164.719 421.25 166.743C425.049 167.62 428.134 170.209 430.178 173.774C435.962 164.931 444.336 159.959 452.237 161.783C457.718 163.048 461.981 167.345 464.496 173.354C479.473 157.373 503.659 149.705 528.191 155.369C537.282 157.468 545.541 161.191 552.643 166.123C575.597 137.754 631.58 126.011 691.569 139.861L691.603 139.888Z" fill="#1E223D"/>
<path d="M368.584 318.077L362.186 419.792L352.718 417.606L350.994 402.529L347.606 416.426L337.969 414.201L344.569 309.371C332.005 301.836 324.738 291.147 327.018 281.271C330.323 266.957 352.487 259.842 376.497 265.385C400.507 270.928 417.309 287.04 414.004 301.354C410.887 314.856 390.991 321.958 368.607 318.063L368.584 318.077Z" fill="#1E223D"/>
<path d="M516.305 203.055L491.717 309.557L403.908 289.285C393.566 295.613 376.24 304.436 353.032 308.571C339.65 310.946 327.437 311.197 317.046 310.473L295.369 404.366L285.762 402.148L286.451 388.187L280.949 401.036L271.342 398.819L307.365 242.786C307.365 242.786 307.431 242.761 307.469 242.77C308.667 244.582 310.598 245.985 312.967 246.532C317.647 247.613 322.25 244.966 323.251 240.63L333.427 196.553C337.755 177.808 353.464 165.441 368.49 168.91L516.309 203.036L516.305 203.055Z" fill="#7297A0"/>
<path d="M621.911 371.609L615.585 370.149C607.094 368.188 598.615 373.51 596.647 382.034L580.728 450.984C578.76 459.509 584.048 468.008 592.54 469.969L598.865 471.429C607.357 473.39 615.836 468.068 617.804 459.544L633.723 390.594C635.691 382.069 630.402 373.57 621.911 371.609Z" fill="#7297A0"/>
<path d="M615.104 302.004L579.967 454.199C577.132 466.477 561.108 473.227 544.143 469.311C531.732 466.445 522.248 458.656 519.207 449.851C514.205 453.33 507.417 454.72 500.56 453.137C488.545 450.363 480.77 439.479 483.229 428.829L486.729 413.667L454.369 406.196C445.545 386.238 436.722 366.279 427.88 346.317L441.292 349.413C423.861 332.436 415.37 308.453 420.845 284.738C425.214 265.814 437.635 250.623 454.234 241.383C470.796 232.136 491.511 228.854 512.442 233.687L624.146 259.476L614.371 301.815L615.127 301.99L615.104 302.004Z" fill="#1E223D"/>
<path d="M431.838 251.125L424.944 280.987C422.911 289.793 426.925 298.232 433.902 299.842L449.567 303.459L443.35 330.385L418.395 324.624C404.611 321.442 397.215 302.511 401.872 282.34C406.147 263.824 419.077 250.716 431.838 251.125Z" fill="#FBE6A7"/>
<path d="M574.708 282.627L567.41 314.239C565.256 323.567 557.212 329.655 549.439 327.86L531.98 323.829L525.4 352.332L553.216 358.754C568.574 362.299 585.01 347.859 589.942 326.496C594.471 306.881 587.72 288.28 574.712 282.608L574.708 282.627Z" fill="#FBE6A7"/>
<path d="M485.355 415.183C482.665 408.548 479.951 401.927 477.262 395.291L445.099 387.866C447.789 394.502 450.503 401.122 453.193 407.758L485.355 415.183Z" fill="#7297A0"/>
<path d="M507.516 384.252C513.029 385.525 518.457 382.407 519.638 377.288C520.82 372.169 517.309 366.987 511.796 365.714C506.283 364.441 500.856 367.56 499.674 372.679C498.493 377.798 502.004 382.979 507.516 384.252Z" fill="#FBE6A7"/>
<path d="M507.846 382.826C512.571 383.917 517.212 381.29 518.212 376.959C519.212 372.627 516.192 368.231 511.467 367.14C506.742 366.049 502.1 368.676 501.1 373.008C500.1 377.34 503.12 381.735 507.846 382.826Z" fill="#1E223D"/>
<path d="M433.484 361.152L459.602 367.182C460.811 367.461 461.996 366.727 462.269 365.545C462.542 364.363 461.799 363.183 460.59 362.904L431.391 356.163C432.082 357.825 432.778 359.468 433.469 361.129L433.484 361.152Z" fill="#DE1923"/>
<path d="M468.898 372.352L435.444 364.629C436.146 366.293 436.852 367.938 437.554 369.602L467.915 376.611C469.137 376.893 470.332 376.161 470.605 374.979C470.878 373.797 470.125 372.615 468.903 372.333L468.898 372.352Z" fill="#DE1923"/>
<path d="M470.065 380.138L438.075 372.753L439.969 379.171L468.754 385.817C469.997 386.104 471.282 385.057 471.646 383.481C472.01 381.905 471.314 380.4 470.071 380.113L470.065 380.138Z" fill="#DE1923"/>
<path d="M345.078 177.023L342.892 186.492L328.966 183.277C327.873 183.114 322.966 182.572 318.664 186.562L318.665 186.564C315.734 189.286 314.496 192.712 314.001 194.367C311.159 206.164 308.315 217.967 305.472 229.769C302.619 241.613 299.766 253.458 296.914 265.297L296.913 265.295C294.829 275.178 285.341 282.776 275.932 279.653L275.932 279.652C267.541 276.87 263.774 266.864 266.092 258.045L269.132 244.492C270.141 239.992 271.15 235.493 272.158 230.998C272.769 227.99 271.083 226.326 270.168 226.097L270.163 226.096C269.292 225.877 267.246 226.426 266.291 229.073L257.218 225.782C259.452 219.592 265.765 214.971 272.527 216.669L272.532 216.671C279.7 218.469 282.999 226.208 281.602 232.97L281.595 233.011L281.585 233.052C280.573 237.566 279.559 242.084 278.546 246.603C277.532 251.122 276.518 255.642 275.506 260.156L275.481 260.271L275.449 260.384C273.979 265.725 276.7 269.671 278.977 270.425L278.981 270.426C281.361 271.216 286.28 269.258 287.495 263.216L287.514 263.125L287.535 263.036C290.387 251.196 293.242 239.351 296.095 227.507C298.948 215.663 301.801 203.818 304.653 191.979L304.68 191.863L304.714 191.748C305.359 189.548 307.214 184 312.133 179.432L312.136 179.431C320.042 172.097 329.133 173.458 330.642 173.702L330.801 173.726L345.078 177.023Z" fill="#7297A0"/>
<path d="M273.694 225.899C273.773 222.888 271.984 220.228 269.231 219.593C266.045 218.857 262.797 221.137 261.98 224.678C261.162 228.219 263.082 231.691 266.268 232.427C267.211 232.645 268.16 232.575 269.056 232.308C270.394 229.011 272.252 226.555 273.713 225.903L273.694 225.899Z" fill="#1E223D"/>
<path d="M269.096 231.953C269.153 231.791 269.243 231.657 269.3 231.496C269.453 231.086 269.607 230.677 269.713 230.217C270.62 226.285 268.805 222.498 265.655 221.77C262.504 221.043 259.212 223.651 258.305 227.584C257.397 231.516 259.212 235.303 262.363 236.03C265.009 236.642 267.754 234.875 269.092 231.971C269.092 231.971 269.092 231.971 269.096 231.953Z" fill="#1E223D"/>
<path d="M257.653 226.444C256.431 229.48 255.811 230.996 254.976 231.857C254.397 232.445 252.821 233.76 249.372 233.745C252.278 235.274 254.841 235.866 256.519 236.117C258.754 236.457 261.474 236.87 264.456 235.646C265.199 235.349 266.482 234.806 267.686 233.601C268.935 232.367 268.824 231.677 270.38 229.363C271.588 227.553 272.711 226.368 273.393 225.667C274.938 224.071 275.773 223.21 277.21 222.664C278.543 222.152 279.779 222.144 280.573 222.211C280.101 221.165 278.98 219.091 276.644 217.517C272.437 214.691 267.803 215.886 266.954 216.139C262.272 217.458 259.587 221.406 258.625 223.819C258.397 224.39 258.236 224.919 257.639 226.421L257.653 226.444Z" fill="#1E223D"/>
<path d="M628.527 204.912L744.033 231.579L745.35 225.875L629.844 199.208L628.527 204.912Z" fill="#1E223D"/>
<path d="M627.539 209.191L743.045 235.857L743.374 234.431L627.868 207.765L627.539 209.191Z" fill="#1E223D"/>
<path d="M610.419 283.343L725.925 310.009L728.559 298.601L613.053 271.935L610.419 283.343Z" fill="#1E223D"/>
<path d="M616.346 257.674L731.852 284.341L736.79 262.951L621.284 236.284L616.346 257.674Z" fill="#1E223D"/>
<path d="M625.893 216.32L741.399 242.987L742.386 238.709L626.88 212.042L625.893 216.32Z" fill="#1E223D"/>
<path d="M621.613 234.858L737.119 261.525L739.094 252.969L623.588 226.302L621.613 234.858Z" fill="#1E223D"/>
<path d="M625.234 219.172L740.74 245.839L740.74 245.839L625.234 219.172L625.234 219.172Z" fill="#1E223D"/>
<path d="M624.247 223.45L739.753 250.117L740.082 248.691L624.576 222.024L624.247 223.45Z" fill="#1E223D"/>
<path d="M615.028 263.378L730.534 290.045L731.522 285.767L616.016 259.1L615.028 263.378Z" fill="#1E223D"/>
<path d="M614.37 266.23L729.876 292.897L730.205 291.471L614.699 264.804L614.37 266.23Z" fill="#1E223D"/>
<path d="M613.383 270.508L728.889 297.175L729.218 295.749L613.712 269.082L613.383 270.508Z" fill="#1E223D"/>
<path d="M608.773 290.472L724.279 317.139L725.596 311.435L610.09 284.768L608.773 290.472Z" fill="#1E223D"/>
<path d="M607.786 294.75L723.292 321.417L723.95 318.565L608.444 291.898L607.786 294.75Z" fill="#1E223D"/>
<path d="M590.666 368.902L706.172 395.569L708.806 384.161L593.3 357.494L590.666 368.902Z" fill="#1E223D"/>
<path d="M596.922 341.808L712.428 368.475L717.366 347.085L601.86 320.418L596.922 341.808Z" fill="#1E223D"/>
<path d="M606.14 301.88L721.646 328.547L722.963 322.843L607.457 296.176L606.14 301.88Z" fill="#1E223D"/>
<path d="M602.189 318.992L717.695 345.659L719.341 338.529L603.835 311.862L602.189 318.992Z" fill="#1E223D"/>
<path d="M605.481 304.733L720.987 331.399L720.987 331.399L605.481 304.733L605.481 304.733Z" fill="#1E223D"/>
<path d="M604.494 309.01L720 335.676L720.329 334.25L604.823 307.584L604.494 309.01Z" fill="#1E223D"/>
<path d="M595.276 348.938L710.782 375.605L711.77 371.327L596.264 344.66L595.276 348.938Z" fill="#1E223D"/>
<path d="M594.618 351.79L710.124 378.457L710.453 377.031L594.947 350.364L594.618 351.79Z" fill="#1E223D"/>
<path d="M593.629 356.068L709.135 382.734L709.794 379.882L594.288 353.216L593.629 356.068Z" fill="#1E223D"/>
<path d="M590.008 371.754L705.514 398.421L705.843 396.995L590.337 370.328L590.008 371.754Z" fill="#1E223D"/>
<path d="M573.218 444.48L688.724 471.147L690.699 462.591L575.193 435.924L573.218 444.48Z" fill="#1E223D"/>
<path d="M579.144 418.812L694.65 445.479L699.259 425.515L583.753 398.848L579.144 418.812Z" fill="#1E223D"/>
<path d="M588.362 378.885L703.868 405.551L704.856 401.273L589.35 374.607L588.362 378.885Z" fill="#1E223D"/>
<path d="M584.412 395.996L699.918 422.663L701.564 415.533L586.058 388.866L584.412 395.996Z" fill="#1E223D"/>
<path d="M587.704 381.736L703.21 408.403L703.539 406.977L588.033 380.31L587.704 381.736Z" fill="#1E223D"/>
<path d="M586.716 386.014L702.222 412.681L702.88 409.829L587.374 383.162L586.716 386.014Z" fill="#1E223D"/>
<path d="M577.827 424.516L693.333 451.183L693.991 448.331L578.485 421.664L577.827 424.516Z" fill="#1E223D"/>
<path d="M576.84 428.794L692.346 455.461L692.675 454.035L577.169 427.368L576.84 428.794Z" fill="#1E223D"/>
<path d="M575.852 433.073L691.358 459.739L692.016 456.887L576.51 430.221L575.852 433.073Z" fill="#1E223D"/>
<path d="M92.8399 127.801C101.897 129.892 110.86 124.564 112.86 115.901C114.86 107.238 109.14 98.52 100.083 96.4291C91.0258 94.3381 82.0624 99.6659 80.0623 108.329C78.0623 116.992 83.783 125.71 92.8399 127.801Z" fill="#1E223D"/>
<path d="M52.3459 303.199C61.4029 305.29 70.3663 299.962 72.3664 291.299C74.3664 282.636 68.6457 273.918 59.5887 271.827C50.5318 269.736 41.5684 275.064 39.5684 283.727C37.5683 292.39 43.289 301.108 52.3459 303.199Z" fill="#1E223D"/>
<path d="M72.7573 214.788C81.8142 216.879 90.704 211.87 92.6131 203.601C94.5223 195.331 88.7278 186.933 79.6709 184.842C70.614 182.751 61.7243 187.759 59.8151 196.029C57.906 204.298 63.7004 212.697 72.7573 214.788Z" fill="#1E223D"/>
</svg>
