<svg width="743" height="614" viewBox="0 0 743 614" fill="none" xmlns="http://www.w3.org/2000/svg">
<path d="M577.374 361.798L518.08 437.797L577.374 458.201V361.798Z" fill="#FBE6A7"/>
<path d="M577.374 405.165H440.799V505.478H556.828C568.203 505.478 577.374 496.307 577.374 484.932V405.093V405.165Z" fill="#FBE6A7"/>
<path d="M336.856 480.808L480.044 482.159L420.11 364.357L336.856 480.808Z" fill="#DE1923"/>
<path d="M80.6266 325.042L81.9064 325.54C81.4798 325.895 81.0532 326.25 80.6266 326.677C78.707 328.312 76.8585 330.09 75.01 331.867C37.7557 369.12 33.7032 425.568 66.0519 457.845C85.7455 477.538 114.326 483.794 142.125 477.182C136.65 489.482 133.522 503.274 133.522 517.848C133.522 570.529 173.833 613.327 223.53 613.327C261.779 613.327 294.483 587.947 307.423 552.186C317.376 568.893 333.302 581.122 352.711 584.961C391.885 592.639 430.561 563.277 439.164 519.341C440.159 514.222 440.657 509.104 440.799 504.127C415.773 486.14 390.747 468.082 365.793 450.096C371.125 437.939 374.111 424.36 374.111 410.07C374.111 357.39 333.87 314.591 284.174 314.591C257.371 314.591 233.341 327.032 216.918 346.797C213.292 338.052 208.031 329.947 201.063 322.98C190.612 312.529 177.744 305.918 163.667 302.932L163.667 73.441C163.027 73.0856 162.458 72.659 161.889 72.3035C160.681 71.5926 159.472 70.8817 158.335 70.0997C157.126 69.2465 156.059 68.3934 154.922 67.5403C153.998 66.9004 153.073 66.1895 152.149 65.4074C151.154 64.5543 150.158 63.6301 149.163 62.7059C148.31 61.995 147.457 61.284 146.675 60.4309C146.604 60.3598 146.461 60.2177 146.39 60.1466C145.964 59.72 145.537 59.1512 145.04 58.6535C138.428 51.6153 132.953 43.4395 129.114 34.4106C128.119 31.9934 127.194 29.5051 126.341 26.9458C125.844 25.1684 125.417 23.4622 124.991 21.6848L0.21703 133.302L49.2021 188.115L5.33597 293.974L80.5555 325.113L80.6266 325.042Z" fill="#7297A0"/>
<path d="M80.6265 325.042V326.677C81.053 326.251 81.4797 325.896 81.9062 325.54L80.6265 325.042Z" fill="#7297A0"/>
<path d="M41.7369 206.671C79.6311 225.156 121.649 235.18 163.809 235.037V256.508L29.5084 236.246L41.8081 206.6L41.7369 206.671Z" fill="#FBE6A7"/>
<path d="M163.809 162.877V228.781L44.4386 182.428L0.430189 133.231L51.4772 87.6599L163.809 162.877Z" fill="#FBE6A7"/>
<path d="M101.884 101.594C89.6557 92.4233 76.6451 84.1764 62.9947 77.2092L91.362 51.8288L163.809 124.771V157.545C144.257 137.639 124.208 118.23 101.884 101.523V101.594Z" fill="#FBE6A7"/>
<path d="M104.586 40.0983L125.275 21.614C125.701 23.3914 126.128 25.1686 126.626 26.8749C127.479 29.4343 128.403 31.9226 129.398 34.3397C133.166 43.3687 138.712 51.5445 145.324 58.5827C145.75 59.0804 146.177 59.578 146.675 60.0757C146.746 60.1467 146.888 60.289 146.959 60.3601C147.741 61.2132 148.594 61.9241 149.447 62.635C150.443 63.5593 151.367 64.4835 152.433 65.3366C153.358 66.1187 154.282 66.7585 155.206 67.4695C156.344 68.3226 157.41 69.2468 158.619 70.0288C159.756 70.8109 160.965 71.5218 162.174 72.2327C162.813 72.5882 163.382 73.0148 163.951 73.3703V96.9023C148.452 74.0812 128.047 54.6015 104.657 40.0983H104.586Z" fill="#FBE6A7"/>
<path d="M108.709 427.772C147.172 406.018 184.569 382.13 219.193 354.759L50.7661 434.882C47.3535 427.061 45.3628 418.601 44.7229 409.857L211.656 342.175C155.064 361.655 99.3247 383.41 44.5097 407.297C43.2299 381.277 53.6099 353.337 75.152 331.796C76.9294 330.018 78.849 328.241 80.7686 326.606C81.1952 326.179 81.6217 325.824 82.0483 325.468L80.7686 324.971L5.54908 293.832L23.1808 251.318C36.1203 254.019 49.2731 255.583 62.4258 256.365C96.1253 258.498 130.038 256.365 163.809 257.218V302.789C177.815 305.704 190.683 312.316 201.205 322.838C208.173 329.805 213.505 337.91 217.06 346.654C233.483 326.89 257.584 314.449 284.316 314.449C334.013 314.449 374.253 357.176 374.253 409.928C374.253 424.218 371.267 437.797 365.935 449.954C374.253 455.925 382.571 461.897 390.889 467.94C383.282 485.429 379.941 504.98 378.59 524.175C377.168 544.437 377.594 564.841 376.457 585.174C368.778 586.525 360.887 586.525 352.924 584.961C333.515 581.193 317.589 568.964 307.636 552.186C294.696 587.875 262.135 613.185 224.098 613.327L360.176 425.711C295.763 472.277 245.854 538.465 218.553 613.114C179.805 610.768 147.599 582.401 137.29 544.224L307.423 404.24C290.502 403.672 275.572 414.051 261.779 423.862C233.412 444.124 204.476 463.817 178.597 487.278C162.813 501.639 148.239 517.422 135.157 534.271C134.304 528.939 133.735 523.464 133.735 517.919C133.735 503.416 136.792 489.553 142.338 477.254C114.539 483.794 85.9586 477.538 66.265 457.916C64.061 455.712 62.0704 453.366 60.2219 451.02C77.2138 445.19 93.1394 436.73 108.78 427.843L108.709 427.772Z" fill="#FBE6A7"/>
<path d="M397.146 472.491C411.792 483.013 426.366 493.534 441.012 504.056C440.87 509.104 440.372 514.152 439.377 519.27C432.623 553.68 407.384 579.06 378.021 584.819L397.217 472.491H397.146Z" fill="#FBE6A7"/>
<path d="M163.809 324.829H440.799C452.245 216.766 463.692 108.775 475.138 0.783539H163.809V324.829Z" fill="#DE1923"/>
<path d="M163.809 275.347H440.799V505.407C383.14 467.087 325.552 428.697 267.965 390.377C233.27 369.049 198.575 347.65 163.809 326.322V275.276V275.347Z" fill="#DE1923"/>
<path d="M163.809 275.347H440.799V505.407C383.14 467.087 325.552 428.697 267.965 390.377C233.27 369.049 198.575 347.65 163.809 326.322V275.276V275.347Z" fill="#DE1923"/>
<path d="M577.73 305.491L501.515 212.501L577.73 185.272V305.491Z" fill="#FBE6A7"/>
<path d="M470.303 0.783255H623.16C662.334 25.9504 688.284 69.8864 688.284 119.865C688.284 198.068 624.866 261.413 546.732 261.413C468.597 261.413 405.179 197.997 405.179 119.865C405.179 69.8864 431.13 25.9504 470.303 0.783255Z" fill="#FBE6A7"/>
<path d="M647.404 0.783409H581.071V53.4639C581.071 87.4467 608.656 115.031 642.64 115.031H688.497V41.8756C688.497 19.1967 670.154 0.783409 647.404 0.783409Z" fill="#7297A0"/>
<path d="M527.678 140.625C527.678 135.363 531.943 131.098 537.205 131.098C542.466 131.098 546.732 135.363 546.732 140.625C546.732 145.886 542.466 150.151 537.205 150.151C531.943 150.151 527.678 145.886 527.678 140.625Z" fill="#1E223D"/>
<path d="M491.988 140.625C491.988 135.363 496.253 131.098 501.515 131.098C506.776 131.098 511.042 135.363 511.042 140.625C511.042 145.886 506.776 150.151 501.515 150.151C496.253 150.151 491.988 145.886 491.988 140.625Z" fill="#1E223D"/>
<path d="M491.988 172.759C491.988 167.498 496.253 163.233 501.515 163.233C506.776 163.233 511.042 167.498 511.042 172.759C511.042 178.021 506.776 182.286 501.515 182.286C496.253 182.286 491.988 178.021 491.988 172.759Z" fill="#1E223D"/>
<path d="M527.678 172.759C527.678 167.498 531.943 163.233 537.205 163.233C542.466 163.233 546.732 167.498 546.732 172.759C546.732 178.021 542.466 182.286 537.205 182.286C531.943 182.286 527.678 178.021 527.678 172.759Z" fill="#1E223D"/>
<path d="M202.77 82.6838C157.553 82.6838 120.938 46.0704 120.938 0.854807L284.672 0.854807C284.672 46.0704 248.058 82.6838 202.841 82.6838H202.77Z" fill="#DE1923"/>
<path d="M141.911 33.8422C154.567 52.7531 174.9 66.4032 199.286 69.6024C230.781 73.7259 260.286 59.2227 277.207 34.7664C258.651 75.4321 210.661 93.7743 169.639 75.6454C150.301 67.043 135.939 51.8289 128.048 33.8422H141.983H141.911Z" fill="#1E223D"/>
<path d="M202.77 0.783316V82.6122C157.553 82.6122 120.938 45.9989 120.938 0.783316H202.77Z" fill="#1E223D"/>
<path d="M289.293 63.2745C289.293 32.0204 314.631 6.68387 345.886 6.68387C377.141 6.68387 402.478 32.0204 402.478 63.2745C402.478 94.5287 377.141 119.865 345.886 119.865C314.631 119.865 289.293 94.5287 289.293 63.2745Z" fill="#FBE6A7"/>
<path d="M392.667 56.2364C362.806 117.306 332.662 124.486 299.176 56.2364Z" fill="#1E223D"/>
<path d="M381.718 56.2367C358.825 103.087 335.648 108.562 310.053 56.2367Z" fill="#7297A0"/>
<path d="M329.676 69.2469C329.676 61.2371 336.169 54.7437 344.179 54.7437C352.189 54.7437 358.683 61.2371 358.683 69.2469C358.683 77.2568 352.189 83.75 344.179 83.75C336.169 83.75 329.676 77.2568 329.676 69.2469Z" fill="#1E223D"/>
<path d="M301.166 49.4117H392.027C395.796 49.4117 398.852 52.4673 398.852 56.2367C398.852 60.006 395.796 63.0617 392.027 63.0617H301.166C297.397 63.0617 294.341 60.006 294.341 56.2367C294.341 52.4673 297.397 49.4117 301.166 49.4117Z" fill="#1E223D"/>
<path d="M391.885 268.167C359.607 284.376 325.126 288.357 293.772 276.485C262.419 264.612 239.171 238.947 225.662 205.391L391.885 268.096V268.167Z" fill="#1E223D"/>
<path d="M386.126 336.986C350.578 354.83 312.542 359.238 277.918 346.157C243.294 333.075 217.629 304.709 202.769 267.811L386.126 336.986Z" fill="#1E223D"/>
<path d="M667.097 284.377L600.196 192.452C599.13 190.959 597.068 190.675 595.575 191.741C594.082 192.808 593.797 194.87 594.864 196.362L661.765 288.287C662.832 289.78 664.893 290.064 666.386 288.998C667.879 287.931 668.164 285.87 667.097 284.377Z" fill="#FBE6A7"/>
<path d="M738.762 160.744L625.577 171.764C623.8 171.906 622.449 173.541 622.591 175.319C622.733 177.096 624.369 178.447 626.146 178.305L739.331 167.285C741.108 167.143 742.459 165.508 742.317 163.73C742.175 161.953 740.539 160.602 738.762 160.744Z" fill="#FBE6A7"/>
<path d="M735.136 239.872L632.616 190.817C630.98 190.035 628.99 190.746 628.208 192.381C627.426 194.016 628.137 196.007 629.772 196.789L732.292 245.844C733.928 246.626 735.918 245.915 736.7 244.28C737.482 242.644 736.771 240.654 735.136 239.872Z" fill="#FBE6A7"/>
</svg>
