<svg width="1440" height="2420" viewBox="0 0 1440 2420" fill="none" xmlns="http://www.w3.org/2000/svg">
<g clip-path="url(#clip0_592_526)">
<path d="M380.143 522.633L551.905 383.853C671.058 478.34 790.211 572.898 909.364 667.384C833.578 733.574 757.935 799.694 682.149 865.884C581.48 751.491 480.811 637.097 380.071 522.633H380.143Z" fill="#DE1923"/>
<path d="M246.771 303.799L385.902 186.562L552.119 383.853C494.817 430.066 437.587 476.42 380.356 522.633C335.78 449.617 291.276 376.744 246.771 303.728V303.799Z" fill="#DE1923"/>
<path d="M418.676 402.694C451.592 375.677 471.356 341.693 471.356 304.724C471.356 298.325 470.716 292.069 469.579 285.812L418.676 225.38V402.694Z" fill="#1E223D"/>
<path d="M359.668 947.574C358.388 952.266 340.685 1019.17 377.939 1049.67C386.754 1056.92 396.281 1060.12 403.248 1061.75C420.026 995.421 436.804 929.16 453.582 862.827C442.918 864.249 424.718 868.23 406.234 880.672C372.678 903.21 362.653 937.122 359.739 947.574H359.668Z" fill="#FBE6A7"/>
<path d="M388.532 784.906C385.19 819.885 399.48 859.13 429.553 879.463C439.079 885.862 448.251 889.133 454.649 890.839C470.574 825.075 486.499 759.24 502.424 693.476C492.329 691.344 475.622 689.353 457.066 695.112C418.107 707.056 392.229 746.158 388.532 784.977V784.906Z" fill="#FBE6A7"/>
<path d="M836.636 926.529C992.9 1044.69 1287.67 1165.59 1443.94 1283.75C1442.02 1353.21 1466.74 1403.85 1464.75 1473.31C1415.7 1522.65 991.804 1769.35 942.75 1818.69L984.653 1637.56C895.501 1559.21 806.421 1480.86 717.269 1402.45C681.936 1299.5 646.531 1196.55 611.197 1093.6C617.951 1022.37 624.705 951.128 631.459 879.89C699.851 895.389 768.244 910.888 836.636 926.387V926.529Z" fill="#DE1923"/>
<path d="M1015.72 621.101C1112.27 841.072 1362.45 1068.03 1459 1288C1408.74 1296.96 1204.9 1298.93 1154.64 1307.89L993.895 1362.28C929.84 1317.2 865.784 1272.13 801.729 1227.05C773.149 1202.59 744.569 1178.21 715.919 1153.75C694.875 976.225 673.831 798.627 652.858 621.101C652.858 610.579 661.39 602.118 671.841 602.118C786.444 608.446 901.118 614.773 1015.72 621.101Z" fill="#DE1923"/>
<path d="M883.486 585.268C735.256 586.335 615.463 687.362 615.463 811.851C615.463 936.34 735.256 1037.37 883.486 1038.43V585.268Z" fill="#7297A0"/>
<path d="M883.487 597.71C751.039 593.942 642.195 693.121 632.17 810.145C621.009 941.104 735.825 1067.73 885.051 1064.03C884.553 908.613 883.984 753.197 883.487 597.71Z" fill="#DE1923"/>
<path d="M1021.55 832.682C976.477 798.627 919.673 778.223 857.821 778.223C795.97 778.223 739.166 798.627 694.093 832.682H1021.62H1021.55Z" fill="#1E223D"/>
<path d="M1046.29 926.529C1007.97 897.593 959.628 880.245 907.09 880.245C854.552 880.245 806.208 897.593 767.888 926.529H1046.36H1046.29Z" fill="#1E223D"/>
<path d="M1072.53 1011.56C1042.95 993.288 1005.77 982.339 965.173 982.339C924.579 982.339 887.397 993.288 857.822 1011.56H1072.45H1072.53Z" fill="#1E223D"/>
<path d="M401.827 1061.97C523.255 1090.41 641.199 1031.54 665.869 929.728C690.538 827.919 612.548 721.559 491.547 691.344L401.827 1061.97Z" fill="#7297A0"/>
<path d="M404.6 1050.38C518.421 1077.11 629.043 1021.87 652.148 926.387C675.253 830.905 602.169 731.228 488.703 702.932L404.6 1050.38Z" fill="#DE1923"/>
<path d="M401.827 1061.97C465.456 1076.33 528.516 1039.64 543.09 979.211C557.735 918.78 518.491 857.353 455.289 841.001L401.827 1061.9V1061.97Z" fill="#FBE6A7"/>
<path d="M445.265 882.521C453.725 888.279 465.526 894.109 479.532 894.109C521.264 894.18 562.214 843.347 562.996 792.797C563.707 746.159 530.151 700.657 494.533 692.054C493.537 691.841 492.542 691.699 491.547 691.486L445.265 882.521Z" fill="#FBE6A7"/>
<path d="M467.375 791.02C455.645 782.275 443.914 773.602 432.113 764.857C464.389 772.251 496.666 779.645 528.942 787.039C531.075 793.864 533.208 800.689 535.341 807.514L467.375 791.02Z" fill="#1E223D"/>
<path d="M399.125 962.788L436.663 950.488C463.891 956.958 491.12 963.499 518.349 969.969C512.591 974.874 506.832 979.78 501.074 984.686C467.091 977.363 433.179 970.111 399.196 962.788H399.125Z" fill="#1E223D"/>
<path d="M518.563 880.317C493.325 875.98 468.086 871.714 442.919 867.377C434.743 870.079 426.639 872.781 418.463 875.553C426.923 880.175 435.454 884.796 443.914 889.488C473.845 893.967 503.775 898.446 533.706 902.925C531.857 899.299 529.582 895.389 526.81 891.265C524.037 887.142 521.264 883.516 518.563 880.388V880.317Z" fill="#1E223D"/>
<path d="M1186.84 1364.05C1142.91 1237.86 1008.26 1177.64 905.597 1215.32C793.411 1256.49 730.209 1410.48 801.516 1539.31C929.982 1480.86 1058.38 1422.49 1186.84 1364.05Z" fill="#7297A0"/>
<path d="M1177.53 1376.35C1133.31 1253.29 1005.2 1192 909.365 1226.2C804.644 1263.52 748.48 1411.12 818.578 1537.39C938.229 1483.71 1057.88 1430.03 1177.53 1376.35Z" fill="#DE1923"/>
<path d="M942.566 1819.07C935.243 1766.53 927.921 1713.92 920.669 1661.38C918.608 1624.34 916.475 1587.3 914.413 1550.33C921.522 1514.78 928.632 1479.3 935.741 1443.75C1023.9 1460.03 1111.98 1476.31 1200.14 1492.6C1184.28 1540.94 1168.43 1589.29 1152.58 1637.63C1082.62 1698.13 1012.59 1758.64 942.637 1819.14L942.566 1819.07Z" fill="#DE1923"/>
<path d="M634.374 1793.76L664.66 1609.9C755.02 1554.52 845.38 1499.14 935.741 1443.75C957.638 1531.13 979.463 1618.51 1001.36 1705.88C981.809 1743.64 962.188 1781.32 942.637 1819.07C839.906 1810.61 737.176 1802.15 634.445 1793.76H634.374Z" fill="#DE1923"/>
<path d="M797.25 1546.49C793.411 1542.79 789.43 1539.31 785.377 1535.89C768.812 1546.06 752.319 1556.16 735.754 1566.32L854.409 1680.79C856.329 1633.15 837.845 1585.66 797.25 1546.56V1546.49Z" fill="#1E223D"/>
<path d="M693.524 1569.95C647.1 1512.79 545.365 1520.39 466.308 1586.87L634.303 1793.76C713.43 1727.28 739.948 1627.11 693.524 1569.95Z" fill="#DE1923"/>
<path d="M611.766 1557.43C587.026 1526.93 521.904 1540.16 466.308 1586.94L555.887 1697.21C611.482 1650.5 636.507 1587.93 611.766 1557.51V1557.43Z" fill="#FBE6A7"/>
<path d="M554.82 1767.88C579.561 1798.38 615.179 1809.9 634.374 1793.76L544.796 1683.49C525.601 1699.63 530.08 1737.45 554.749 1767.88H554.82Z" fill="#FBE6A7"/>
<path d="M476.333 1671.26C501.074 1701.76 536.691 1713.28 555.887 1697.14L466.309 1586.87C447.113 1603.01 451.592 1640.83 476.262 1671.26H476.333Z" fill="#FBE6A7"/>
<path d="M555.603 1696.78L544.867 1683.56C542.806 1685.55 540.246 1688.46 537.971 1692.59C535.412 1697.14 534.203 1701.4 533.635 1704.46C536.549 1704.46 540.957 1704.11 545.863 1702.26C550.271 1700.62 553.47 1698.49 555.674 1696.78H555.603Z" fill="#1E223D"/>
<path d="M690.254 1653.98C665.513 1623.48 600.391 1636.71 544.796 1683.49L634.374 1793.76C689.969 1747.05 714.994 1684.48 690.254 1654.05V1653.98Z" fill="#FBE6A7"/>
<path d="M587.737 1736.31C587.523 1741.86 587.31 1747.33 587.026 1752.88L659.755 1691.74C659.612 1686.55 659.47 1681.36 659.328 1676.17L587.737 1736.31Z" fill="#1E223D"/>
<path d="M499.723 1645.31C505.055 1646.09 510.458 1646.94 515.79 1647.73L587.381 1587.58C582.405 1586.44 577.428 1585.38 572.452 1584.17C548.209 1604.57 523.966 1624.9 499.723 1645.31Z" fill="#1E223D"/>
<path d="M585.248 1655.97L547.924 1687.33L555.602 1696.78L621.364 1641.54C609.776 1644.6 597.619 1649.43 585.248 1655.97Z" fill="#1E223D"/>
<path d="M611.198 1627.82L544.867 1683.56L552.545 1693.01L591.149 1660.52C599.467 1649.65 606.221 1638.56 611.198 1627.75V1627.82Z" fill="#1E223D"/>
<path d="M1314.56 1576.25C1309.51 1572.41 1291.72 1563.09 1286.31 1559.6C1242.09 1531.24 1192.04 1519.79 1144.12 1523.49L1274.62 1601.56C1286.31 1594.25 1302.19 1584.12 1314.56 1576.25Z" fill="#1E223D"/>
<path d="M1233.56 1627.44C1229.37 1624.88 1218.31 1614.81 1213.76 1612.39C1177.36 1592.84 1141.03 1583.88 1109.25 1580.19C1139.46 1602.51 1170.16 1626.56 1200.38 1648.81C1212.19 1640.38 1222.88 1634.19 1233.56 1627.44Z" fill="#1E223D"/>
<path d="M1490.03 1431.38L1375.55 2154.6L813.451 2419.44H278.882C278.68 2419.46 278.47 2419.48 278.251 2419.5C276.061 2419.72 272.979 2420.01 269.151 2420.3C261.513 2420.89 250.804 2421.54 238.205 2421.78C213.483 2422.26 179.414 2421.25 146.45 2414.32C115.247 2407.77 75.2278 2393.94 49.8145 2361.13C20.8945 2323.79 21.1056 2276.47 42.2109 2227.58L131.039 2265.92C118.718 2294.46 125.926 2301.4 126.305 2301.89C130.19 2306.9 141.771 2314.48 166.345 2319.64C189.159 2324.43 215.046 2325.46 236.336 2325.05C246.742 2324.85 255.553 2324.32 261.683 2323.84C264.739 2323.61 267.104 2323.39 268.639 2323.23C269.406 2323.16 269.964 2323.1 270.295 2323.06C270.432 2323.04 270.53 2323.03 270.588 2323.03L270.612 2323.02C270.614 2323.02 270.617 2323.02 270.619 2323.02L273.439 2322.69H791.8L1288 2088.9L1394.47 1416.25L1490.03 1431.38Z" fill="#DE1923"/>
<path d="M353.813 2419.44C353.813 2419.44 354.54 2404.93 353.897 2401.52C348.884 2374.04 337.708 2353.59 325.511 2338.44C326.108 2365.27 325.049 2392.65 325.688 2419.44C325.688 2419.44 345.036 2419.62 353.813 2419.44Z" fill="#1E223D"/>
<path d="M425.25 2419.44C425.25 2419.44 426.167 2404.93 425.525 2401.52C420.512 2374.04 409.335 2353.59 397.138 2338.44C397.735 2365.27 396.487 2392.65 397.125 2419.44C397.125 2419.44 416.474 2419.62 425.25 2419.44Z" fill="#1E223D"/>
<path d="M671.063 2419.44C671.063 2419.44 671.417 2404.93 670.775 2401.52C665.762 2374.04 654.585 2353.59 642.388 2338.44C642.985 2365.27 641.737 2392.65 642.375 2419.44C642.375 2419.44 662.286 2419.62 671.063 2419.44Z" fill="#1E223D"/>
<path d="M736.875 2419.44C736.875 2419.44 737.792 2404.93 737.15 2401.52C732.137 2374.04 720.96 2353.59 708.763 2338.44C709.36 2365.27 708.674 2392.65 709.313 2419.44C709.313 2419.44 728.099 2419.62 736.875 2419.44Z" fill="#1E223D"/>
<path d="M1167.87 2145.21C1167.87 2145.21 1173.8 2158.46 1175.85 2161.27C1192.2 2183.91 1211.09 2197.56 1228.62 2205.98C1216.53 2182.02 1205.88 2156.77 1193.77 2132.87C1193.77 2132.87 1175.72 2141.27 1167.87 2145.21Z" fill="#1E223D"/>
<path d="M1108.47 2173.54C1108.47 2173.54 1113.89 2187.03 1115.94 2189.84C1132.29 2212.48 1151.18 2226.13 1168.71 2234.55C1156.62 2210.59 1145.46 2185.58 1133.35 2161.68C1133.35 2161.68 1116.31 2169.6 1108.47 2173.54Z" fill="#1E223D"/>
</g>
<defs>
<clipPath id="clip0_592_526">
<rect width="1440" height="2420" fill="white"/>
</clipPath>
</defs>
</svg>
