<svg width="613" height="743" viewBox="0 0 613 743" fill="none" xmlns="http://www.w3.org/2000/svg">
<path d="M251.8 165.375L175.801 224.67L155.397 165.375H251.8Z" fill="#FBE6A7"/>
<path d="M208.433 165.375V301.951H108.12V185.922C108.12 174.547 117.291 165.375 128.666 165.375H208.504H208.433Z" fill="#FBE6A7"/>
<path d="M132.789 405.893L131.438 262.706L249.241 322.64L132.789 405.893Z" fill="#DE1923"/>
<path d="M288.556 662.123L288.058 660.843C287.703 661.27 287.347 661.697 286.921 662.123C285.285 664.043 283.508 665.891 281.731 667.74C244.478 704.994 188.029 709.046 155.753 676.698C136.06 657.004 129.803 628.424 136.415 600.625C124.116 606.099 110.324 609.228 95.7494 609.228C43.0689 609.228 0.270508 568.916 0.270508 519.22C0.270508 480.971 25.651 448.266 61.4112 435.327C44.7041 425.374 32.476 409.448 28.637 390.039C20.9588 350.865 50.3205 312.189 94.2565 303.586C99.3752 302.591 104.494 302.093 109.471 301.951C127.457 326.977 145.515 352.002 163.502 376.957C175.659 371.625 189.238 368.639 203.528 368.639C256.208 368.639 299.006 408.879 299.006 458.575C299.006 485.378 286.565 509.409 266.801 525.832C275.546 529.458 283.65 534.719 290.617 541.687C301.068 552.138 307.68 565.006 310.666 579.083H540.156C540.512 579.723 540.939 580.292 541.294 580.86C542.005 582.069 542.716 583.278 543.498 584.415C544.351 585.624 545.204 586.69 546.057 587.828C546.697 588.752 547.408 589.676 548.19 590.601C549.043 591.596 549.967 592.591 550.892 593.587C551.603 594.44 552.314 595.293 553.167 596.075C553.238 596.146 553.38 596.288 553.451 596.359C553.878 596.786 554.446 597.212 554.944 597.71C561.982 604.322 570.158 609.796 579.187 613.636C581.604 614.631 584.092 615.555 586.652 616.408C588.429 616.906 590.135 617.333 591.913 617.759L480.296 742.533L425.482 693.548L319.624 737.414L288.485 662.194L288.556 662.123Z" fill="#7297A0"/>
<path d="M288.555 662.123H286.92C287.347 661.697 287.702 661.27 288.057 660.843L288.555 662.123Z" fill="#7297A0"/>
<path d="M406.926 701.013C388.442 663.118 378.418 621.101 378.56 578.941H357.09L377.351 713.241L406.998 700.941L406.926 701.013Z" fill="#FBE6A7"/>
<path d="M450.72 578.941H384.816L431.17 698.311L480.366 742.319L525.938 691.272L450.72 578.941Z" fill="#FBE6A7"/>
<path d="M512.003 640.865C521.174 653.094 529.421 666.104 536.388 679.755L561.769 651.388L488.827 578.941H456.052C475.959 598.492 495.367 618.541 512.074 640.865H512.003Z" fill="#FBE6A7"/>
<path d="M573.499 638.164L591.984 617.475C590.206 617.048 588.429 616.622 586.723 616.124C584.163 615.271 581.675 614.347 579.258 613.351C570.229 609.583 562.053 604.038 555.015 597.426C554.517 596.999 554.02 596.573 553.522 596.075C553.451 596.004 553.309 595.862 553.237 595.791C552.384 595.009 551.673 594.155 550.962 593.302C550.038 592.307 549.114 591.383 548.261 590.316C547.479 589.392 546.839 588.468 546.128 587.543C545.275 586.406 544.351 585.339 543.569 584.131C542.787 582.993 542.076 581.785 541.365 580.576C541.009 579.936 540.583 579.367 540.227 578.799H516.695C539.516 594.298 558.996 614.702 573.499 638.093V638.164Z" fill="#FBE6A7"/>
<path d="M185.825 634.04C207.58 595.577 231.467 558.181 258.838 523.557L178.716 691.983C186.536 695.396 194.996 697.387 203.741 698.027L271.422 531.093C251.942 587.686 230.188 643.425 206.3 698.24C232.32 699.52 260.26 689.14 281.802 667.598C283.579 665.82 285.356 663.9 286.992 661.981C287.418 661.554 287.774 661.128 288.129 660.701L288.627 661.981L319.766 737.2L362.28 719.569C359.578 706.629 358.014 693.476 357.232 680.324C355.099 646.624 357.232 612.711 356.379 578.941H310.808C307.893 564.935 301.281 552.066 290.76 541.544C283.792 534.577 275.688 529.245 266.943 525.69C286.707 509.267 299.149 485.165 299.149 458.433C299.149 408.737 256.421 368.497 203.67 368.497C189.38 368.497 175.801 371.483 163.644 376.815C157.672 368.497 151.7 360.178 145.657 351.86C128.168 359.467 108.617 362.809 89.4221 364.16C69.1604 365.582 48.7564 365.155 28.4236 366.293C27.0728 373.971 27.0729 381.863 28.637 389.825C32.4049 409.235 44.6331 425.16 61.4112 435.114C25.7221 448.053 0.412695 480.615 0.270508 518.651L187.887 382.574C141.321 446.987 75.1322 496.896 0.48378 524.197C2.82987 562.944 31.1963 595.151 69.3736 605.46L209.357 435.327C209.926 452.248 199.546 467.178 189.735 480.971C169.474 509.338 149.781 538.274 126.32 564.153C111.959 579.936 96.176 594.511 79.3268 607.592C84.6588 608.446 90.1331 609.014 95.6784 609.014C110.181 609.014 124.045 605.957 136.344 600.412C129.803 628.21 136.06 656.791 155.681 676.485C157.885 678.689 160.231 680.679 162.578 682.528C168.407 665.536 176.867 649.61 185.754 633.969L185.825 634.04Z" fill="#FBE6A7"/>
<path d="M141.107 345.604C130.585 330.958 120.063 316.383 109.541 301.738C104.494 301.88 99.4459 302.377 94.3271 303.373C59.9178 310.127 34.5373 335.366 28.7787 364.729L141.107 345.533V345.604Z" fill="#FBE6A7"/>
<path d="M288.769 578.941V301.951C396.831 290.504 504.823 279.058 612.814 267.611V578.941H288.769Z" fill="#DE1923"/>
<path d="M338.25 578.941V301.951H108.191C146.51 359.61 184.901 417.197 223.22 474.785C244.549 509.48 265.948 544.175 287.276 578.941H338.321H338.25Z" fill="#DE1923"/>
<path d="M338.25 578.941V301.951H108.191C146.51 359.61 184.901 417.197 223.22 474.785C244.549 509.48 265.948 544.175 287.276 578.941H338.321H338.25Z" fill="#DE1923"/>
<path d="M308.106 165.02L401.097 241.235L428.326 165.02H308.106Z" fill="#FBE6A7"/>
<path d="M612.814 272.446V119.59C587.647 80.4158 543.711 54.4658 493.732 54.4658C415.529 54.4658 352.185 117.883 352.185 196.018C352.185 274.152 415.6 337.57 493.732 337.57C543.711 337.57 587.647 311.62 612.814 272.446Z" fill="#FBE6A7"/>
<path d="M612.814 95.346V161.679H560.134C526.151 161.679 498.566 134.093 498.566 100.109V54.2525H571.722C594.401 54.2525 612.814 72.5953 612.814 95.346Z" fill="#7297A0"/>
<path d="M472.973 215.072C478.234 215.072 482.499 210.806 482.499 205.545C482.499 200.283 478.234 196.018 472.973 196.018C467.711 196.018 463.446 200.283 463.446 205.545C463.446 210.806 467.711 215.072 472.973 215.072Z" fill="#1E223D"/>
<path d="M472.973 250.762C478.234 250.762 482.499 246.496 482.499 241.235C482.499 235.973 478.234 231.708 472.973 231.708C467.711 231.708 463.446 235.973 463.446 241.235C463.446 246.496 467.711 250.762 472.973 250.762Z" fill="#1E223D"/>
<path d="M440.838 250.762C446.1 250.762 450.365 246.496 450.365 241.235C450.365 235.973 446.1 231.708 440.838 231.708C435.577 231.708 431.312 235.973 431.312 241.235C431.312 246.496 435.577 250.762 440.838 250.762Z" fill="#1E223D"/>
<path d="M440.838 215.072C446.1 215.072 450.365 210.806 450.365 205.545C450.365 200.283 446.1 196.018 440.838 196.018C435.577 196.018 431.312 200.283 431.312 205.545C431.312 210.806 435.577 215.072 440.838 215.072Z" fill="#1E223D"/>
<path d="M530.914 539.98C530.914 585.197 567.527 621.812 612.743 621.812V458.078C567.527 458.078 530.914 494.692 530.914 539.909V539.98Z" fill="#DE1923"/>
<path d="M579.755 600.838C560.844 588.183 547.194 567.85 543.995 543.464C539.872 511.968 554.375 482.464 578.831 465.543C538.165 484.099 519.823 532.089 537.952 573.111C546.555 592.449 561.769 606.811 579.755 614.702V600.767V600.838Z" fill="#1E223D"/>
<path d="M612.814 539.98H530.985C530.985 585.197 567.599 621.812 612.814 621.812V539.98Z" fill="#1E223D"/>
<path d="M550.323 453.456C581.577 453.456 606.914 428.119 606.914 396.864C606.914 365.609 581.577 340.272 550.323 340.272C519.069 340.272 493.732 365.609 493.732 396.864C493.732 428.119 519.069 453.456 550.323 453.456Z" fill="#FBE6A7"/>
<path d="M557.361 350.083C496.292 379.943 489.111 410.088 557.361 443.574Z" fill="#1E223D"/>
<path d="M557.361 361.032C510.51 383.924 505.036 407.102 557.361 432.696Z" fill="#7297A0"/>
<path d="M544.351 413.074C552.36 413.074 558.854 406.58 558.854 398.57C558.854 390.56 552.36 384.067 544.351 384.067C536.341 384.067 529.848 390.56 529.848 398.57C529.848 406.58 536.341 413.074 544.351 413.074Z" fill="#1E223D"/>
<path d="M564.186 441.583V350.723C564.186 346.953 561.13 343.898 557.361 343.898C553.592 343.898 550.536 346.953 550.536 350.723V441.583C550.536 445.353 553.592 448.409 557.361 448.409C561.13 448.409 564.186 445.353 564.186 441.583Z" fill="#1E223D"/>
<path d="M345.431 350.865C329.222 383.142 325.24 417.624 337.113 448.977C348.986 480.331 374.65 503.579 408.207 517.087L345.502 350.865H345.431Z" fill="#1E223D"/>
<path d="M276.612 356.624C258.767 392.172 254.36 430.208 267.441 464.832C280.522 499.455 308.889 525.121 345.786 539.98L276.612 356.624Z" fill="#1E223D"/>
<path d="M329.221 75.6524L421.145 142.554C422.638 143.62 422.922 145.682 421.856 147.175C420.79 148.668 418.728 148.952 417.235 147.886L325.311 80.9846C323.818 79.9181 323.533 77.8564 324.6 76.3634C325.666 74.8703 327.728 74.5859 329.221 75.6524Z" fill="#FBE6A7"/>
<path d="M452.853 3.98759L441.834 117.172C441.691 118.95 440.056 120.301 438.279 120.158C436.502 120.016 435.151 118.381 435.293 116.604L446.313 3.41884C446.455 1.64144 448.09 0.290599 449.867 0.432791C451.645 0.574982 452.995 2.21019 452.853 3.98759Z" fill="#FBE6A7"/>
<path d="M373.726 7.61353L422.78 110.134C423.562 111.769 422.852 113.76 421.216 114.542C419.581 115.324 417.591 114.613 416.808 112.978L367.754 10.4574C366.972 8.82215 367.683 6.83147 369.318 6.04941C370.953 5.26736 372.944 5.97833 373.726 7.61353Z" fill="#FBE6A7"/>
</svg>
