<svg width="233" height="259" viewBox="0 0 233 259" fill="none" xmlns="http://www.w3.org/2000/svg">
<path d="M232.56 129.236C232.56 58.0687 148.954 0.480957 45.8683 0.480957V258.062C148.954 258.062 232.56 200.403 232.56 129.307V129.236Z" fill="#DE1923"/>
<path d="M177.107 69.1597C177.107 31.1944 118.313 0.552063 45.8683 0.552063V137.838C118.313 137.838 177.107 107.125 177.107 69.2308V69.1597Z" fill="#FBE6A7"/>
<path d="M0.510681 189.454C0.510681 227.419 20.8435 258.062 45.8685 258.062V120.775C20.8435 120.775 0.510681 151.489 0.510681 189.383V189.454Z" fill="#FBE6A7"/>
<path d="M0.510742 69.1597C0.510742 107.125 20.8436 137.767 45.8686 137.767V0.480957C20.8436 0.480957 0.510742 31.1944 0.510742 69.0886V69.1597Z" fill="#FBE6A7"/>
<path d="M45.8686 137.341V120.846C43.0248 121.06 39.1857 121.629 34.849 123.193C30.0146 124.97 26.3889 127.387 23.9717 129.236C26.2467 131.084 29.8725 133.502 34.849 135.208C39.2568 136.772 43.167 137.127 45.8686 137.27V137.341Z" fill="#1E223D"/>
<path d="M177.107 189.383C177.107 151.418 118.313 120.775 45.8683 120.775V258.062C118.313 258.062 177.107 227.348 177.107 189.454V189.383Z" fill="#FBE6A7"/>
<path d="M45.8683 186.539C42.2425 190.449 38.5456 194.431 34.9199 198.341H129.759C132.887 194.36 136.086 190.521 139.214 186.539H45.8683Z" fill="#1E223D"/>
<path d="M34.9199 64.5385C38.5456 68.4487 42.2425 72.4301 45.8683 76.3404H139.214C136.086 72.359 132.887 68.5198 129.759 64.5385H34.9199Z" fill="#1E223D"/>
<path d="M94.4964 125.539H45.8683V137.341H131.607C120.659 132.435 108.217 128.383 94.5675 125.539H94.4964Z" fill="#1E223D"/>
<path d="M132.318 120.846H45.8683V132.648H96.2026C109.497 129.805 121.654 125.752 132.318 120.846Z" fill="#1E223D"/>
</svg>
