<svg width="120" height="381" viewBox="0 0 120 381" fill="none" xmlns="http://www.w3.org/2000/svg">
<path d="M81.3428 361.21C81.3428 346.272 81.348 331.205 78.1133 304.548C74.8499 277.655 68.4934 240.241 55.3164 194.359C41.9692 147.885 22.1185 95.5713 12.1455 66.0078C1.82862 35.4247 0.443954 25.1455 0.975592 18.4795L1.02051 17.9882C2.10293 7.70746 11.1952 0.10917 21.5596 0.935507C31.9471 1.76394 39.7308 10.7452 39.1318 21.0966C39.2327 22.1133 40.182 29.4536 48.3887 53.7812C57.6247 81.1603 78.4425 136.315 92.0801 183.801C105.888 231.878 112.61 271.307 116.085 299.939C119.588 328.808 119.593 345.621 119.593 361.21C119.593 371.772 111.03 380.335 100.468 380.335C89.9056 380.335 81.3429 371.772 81.3428 361.21Z" fill="#DE1923"/>
</svg>
