<svg width="1440" height="805" viewBox="0 0 1440 805" fill="none" xmlns="http://www.w3.org/2000/svg">
<g clip-path="url(#clip0_592_518)">
<path d="M1231.16 42.0391C1348.35 -3.46352 1479.84 -10.5122 1607.78 71.3799L1475.56 277.94C1429.41 248.402 1383.71 245.895 1319.94 270.659C1249.06 298.181 1169.91 354.745 1074.72 430.942C985.126 502.664 880.537 592.541 775.112 662.622C668.957 733.187 545.128 795.804 408.138 803.884C287.554 810.996 178.501 793.251 94.8735 743.124C5.9586 689.827 -47.9566 602.493 -47.9566 498.097C-47.9566 437.768 -25.3967 386.757 -7.81204 352.491C1.25064 334.832 11.2836 317.46 19.0278 303.872C27.4119 289.161 33.7459 277.809 38.8549 267.287C42.5976 259.579 44.8335 253.954 46.1714 250.034C20.4879 258.78 -13.8943 277.186 -52.5865 302.857C-91.4259 328.624 -128.352 357.478 -156.031 380.376C-169.728 391.708 -180.842 401.317 -188.42 407.991C-192.203 411.323 -195.088 413.907 -196.954 415.592C-197.886 416.433 -198.562 417.049 -198.967 417.419C-199.17 417.604 -199.304 417.728 -199.369 417.787C-199.397 417.813 -199.414 417.828 -199.414 417.828C-199.414 417.828 -199.406 417.821 -199.396 417.812C-199.391 417.807 -199.38 417.796 -199.377 417.794C-199.373 417.774 -200.165 416.89 -282.519 327.659C-365.686 237.548 -365.671 237.533 -365.654 237.518C-365.647 237.511 -365.629 237.495 -365.615 237.482C-365.586 237.455 -365.553 237.425 -365.515 237.391C-365.44 237.321 -365.347 237.235 -365.235 237.132C-365.011 236.927 -364.715 236.655 -364.348 236.32C-363.615 235.651 -362.599 234.727 -361.315 233.567C-358.748 231.25 -355.105 227.986 -350.509 223.94C-341.331 215.857 -328.284 204.583 -312.363 191.411C-280.803 165.302 -236.659 130.663 -188.17 98.4932C-141.161 67.3049 -83.2135 33.7838 -24.937 15.2579C26.4323 -1.07228 120.626 -18.6747 196.471 47.0704L198.259 48.6387L200.731 50.8526C252.359 97.496 286.372 154.294 292.462 221.307C298.208 284.529 277.006 338.301 259.472 374.412C250.408 393.08 240.342 410.85 232.101 425.31C223.22 440.892 216.401 452.74 210.383 464.466C204.528 475.876 201.085 484.071 199.123 490.208C197.236 496.107 197.293 498.365 197.293 498.097C197.293 509.571 200.003 520.206 220.963 532.77C247.211 548.503 301.283 564.51 393.699 559.06C466.521 554.764 546.671 519.985 639.344 458.381C732.747 396.292 821.837 319.227 921.455 239.482C1015.48 164.212 1121.08 84.784 1231.16 42.0391Z" fill="#FBE6A7"/>
<path d="M60.2647 115.417C68.4233 115.269 74.5315 121.159 74.6669 128.597C74.742 132.725 74.8303 137.572 74.8984 141.315L63.8602 141.516L62.848 138.654C62.848 138.654 60.9938 142.288 56.6745 142.367C51.3954 142.463 47.9748 139.165 47.8918 134.606C47.8088 130.046 51.1071 126.626 59.2658 126.477L63.1052 126.407C63.1052 126.407 62.5772 123.777 58.7378 123.846C56.3382 123.89 54.4535 125.845 54.4535 125.845L50.2562 119.44C50.2562 119.44 53.7857 115.535 60.2647 115.417ZM60.8541 134.61C62.0539 134.588 63.2318 133.366 63.1794 130.487C60.5398 130.535 59.3619 131.756 59.3881 133.196C59.4012 133.916 60.1342 134.623 60.8541 134.61ZM93.138 132.69C92.5514 134.768 93.5462 136.545 95.856 137.197C98.1658 137.849 100.535 136.523 100.535 136.523L103.069 145.217C103.069 145.217 98.2652 148.101 91.5668 146.211C83.7135 143.995 79.5684 136.591 81.589 129.431C83.6095 122.27 91.0135 118.125 98.8668 120.341C105.565 122.232 108.153 127.201 108.153 127.201L101.448 133.289C101.448 133.289 100.121 130.92 97.8113 130.268C95.5015 129.616 93.7246 130.611 93.138 132.69ZM119.954 146.101C118.665 147.835 118.962 149.849 120.887 151.282C122.813 152.714 125.5 152.319 125.5 152.319L124.768 161.346C124.768 161.346 119.252 162.328 113.667 158.175C107.119 153.306 105.885 144.911 110.325 138.941C114.765 132.97 123.16 131.736 129.708 136.606C135.293 140.759 135.939 146.324 135.939 146.324L127.505 149.623C127.505 149.623 127.11 146.936 125.184 145.504C123.258 144.072 121.243 144.368 119.954 146.101ZM132.654 174.952L124.634 166.025L143.558 149.023L151.257 157.592L143.045 164.971L154.144 160.806L162.164 169.732L143.24 186.734L135.541 178.165L143.753 170.787L132.654 174.952ZM156.921 211.397L153.332 204.607L163.62 194.283L151.313 200.787L145.931 190.602L168.422 178.715L175.824 192.719L166.585 201.946L179.413 199.509L186.814 213.514L164.322 225.401L158.939 215.216L171.246 208.712L156.921 211.397ZM193.661 237.521C194.933 244.852 190.046 251.789 182.716 253.061C182.527 253.094 180.54 253.438 180.351 253.471L177.726 238.337C177.726 238.337 175.207 239.261 175.863 243.045C176.273 245.409 178.493 246.973 178.493 246.973L172.806 252.101C172.806 252.101 168.407 249.21 167.3 242.825C165.905 234.785 170.791 227.848 178.122 226.576C185.452 225.305 192.389 230.191 193.661 237.521ZM182.178 237.321L182.916 241.578C184.808 241.249 185.59 240.14 185.385 238.957C185.18 237.775 184.07 236.993 182.178 237.321ZM195.685 258.306L194.065 282.251L184.008 281.571L184.429 275.345L169.104 274.309L169.882 262.815L185.207 263.852L185.628 257.626L195.685 258.306ZM172.928 313.921C164.587 311.669 161.204 305.784 162.58 300.687C163.832 296.052 167.808 295.137 167.808 295.137L153.442 291.259L156.445 280.137L192.59 289.896L189.838 300.091C186.807 300.267 186.807 300.267 186.807 300.267C186.807 300.267 189.782 303.059 188.531 307.693C187.155 312.79 181.27 316.173 172.928 313.921ZM176.056 302.336C178.373 302.962 179.845 302.116 180.22 300.726C180.595 299.335 179.75 297.864 177.433 297.239C175.115 296.613 173.644 297.459 173.269 298.849C172.894 300.239 173.739 301.711 176.056 302.336ZM154.529 325.144L159.327 314.145L182.645 324.317L178.039 334.876L167.92 330.462L176.312 338.836L171.514 349.835L148.196 339.663L152.802 329.104L162.921 333.518L154.529 325.144ZM155.265 364.582L162.046 368.189L156.636 378.359L134.175 366.413L139.585 356.242L145.942 359.623C145.942 359.623 145.784 357.365 147.249 354.61C149.841 349.737 155.035 348.149 162.027 351.869L168.808 355.475L163.398 365.646L156.618 362.039C155.558 361.476 154.584 361.774 154.246 362.409C153.908 363.045 154.206 364.019 155.265 364.582ZM139.347 392.491L146.449 396.509L140.777 406.536L118.635 394.009L124.307 383.982L131.41 388L133.3 384.658L126.198 380.64L131.871 370.613L154.013 383.14L148.34 393.167L141.238 389.149L139.347 392.491ZM126.192 419.349C123.347 424.632 117.495 426.387 112.847 423.883C108.198 421.379 106.443 415.527 110.426 408.132C113.727 402.004 116.311 398.217 116.311 398.217L138.709 410.28L133.247 420.423L127.119 417.122C127.119 417.122 126.648 418.504 126.192 419.349ZM120.796 413.172L117.416 411.351C116.733 412.619 117.025 413.594 118.082 414.163C119.138 414.732 120.114 414.44 120.796 413.172ZM121.07 443.032L98.6719 430.969L104.134 420.826L126.533 432.889L121.07 443.032ZM91.826 446.295L96.5851 435.279L119.939 445.369L115.37 455.944L105.235 451.566L113.657 459.91L108.898 470.926L85.5439 460.836L90.1127 450.261L100.247 454.639L91.826 446.295ZM124.112 462.335C123.636 463.437 124.012 464.383 125.113 464.859L122.258 471.469C117.19 469.28 115.313 464.547 117.503 459.48C119.692 454.412 124.424 452.535 129.492 454.725L126.636 461.334C125.535 460.858 124.588 461.234 124.112 462.335ZM91.1515 548.882C89.0437 549.354 87.9533 551.074 88.4778 553.416C89.0023 555.758 91.2955 557.212 91.2955 557.212L84.8503 563.574C84.8503 563.574 80.0296 560.719 78.5085 553.927C76.7251 545.965 81.2687 538.798 88.5288 537.172C95.789 535.546 102.955 540.09 104.739 548.053C106.26 554.844 103.118 559.483 103.118 559.483L94.5743 556.478C94.5743 556.478 96.0283 554.184 95.5037 551.842C94.9792 549.501 93.2593 548.41 91.1515 548.882ZM93.0805 587.993L89.6978 581.098L100.292 571.088L87.7951 577.219L82.7211 566.877L105.561 555.672L112.537 569.893L103.024 578.837L115.92 576.788L122.897 591.008L100.057 602.213L94.9832 591.871L107.48 585.74L93.0805 587.993ZM130.654 598.852C135.427 604.559 134.673 613.011 128.966 617.784C128.818 617.907 127.272 619.2 127.124 619.323L117.271 607.54C117.271 607.54 115.554 609.602 118.017 612.548C119.557 614.389 122.261 614.63 122.261 614.63L119.907 621.917C119.907 621.917 114.652 621.618 110.496 616.647C105.261 610.387 106.015 601.936 111.722 597.163C117.43 592.39 125.882 593.144 130.654 598.852ZM120.615 604.431L123.387 607.745C124.859 606.513 124.98 605.161 124.21 604.24C123.441 603.32 122.088 603.199 120.615 604.431ZM139.89 610.323L157.859 625.498L141.444 644.934L132.643 637.501L142.863 625.4L141.397 624.161C133.499 633.512 127.411 634.025 122.644 629.999C121.177 628.76 119.808 626.661 119.808 626.661L125.073 620.427L125.806 621.047C127.64 622.595 129.669 622.424 139.89 610.323ZM166.741 638.427C171.933 641.434 173.507 647.337 170.861 651.907C168.215 656.476 162.312 658.049 155.043 653.84C149.02 650.352 145.314 647.651 145.314 647.651L158.063 625.636L168.032 631.409L164.544 637.432C164.544 637.432 165.91 637.946 166.741 638.427ZM160.4 643.63L158.476 646.953C159.722 647.675 160.706 647.413 161.307 646.374C161.909 645.336 161.646 644.352 160.4 643.63ZM190.255 644.278L177.506 666.293L167.537 660.52L180.285 638.505L190.255 644.278ZM192.913 672.789L181.762 668.354L191.164 644.715L201.868 648.972L197.788 659.231L205.883 650.569L217.033 655.003L207.632 678.642L196.927 674.385L201.007 664.127L192.913 672.789ZM208.001 640.047C209.116 640.49 210.051 640.087 210.495 638.972L217.185 641.633C215.145 646.762 210.469 648.777 205.34 646.737C200.211 644.697 198.196 640.021 200.236 634.892L206.926 637.553C206.483 638.668 206.886 639.603 208.001 640.047ZM305.524 671.229C300.747 670.761 298.124 672.915 297.796 676.259C297.796 676.259 300.99 673.196 305.768 673.664C311.978 674.273 316.287 679.518 315.608 686.445C314.882 693.849 308.326 699.235 300.205 698.44C292.084 697.644 286.697 691.087 287.727 680.578L287.915 678.667C289.015 667.441 295.571 662.054 306.32 663.108C307.514 663.225 308.301 662.578 308.418 661.384L317.494 662.273C316.745 669.917 314.123 672.071 305.524 671.229ZM304.143 685.321C304.377 682.933 303.348 681.626 301.867 681.481C300.386 681.336 299.122 682.418 298.888 684.806C298.654 687.195 299.684 688.501 301.164 688.647C302.645 688.792 303.909 687.71 304.143 685.321ZM331.809 673.752C339.242 674.073 344.978 680.326 344.657 687.759C344.649 687.951 344.562 689.965 344.553 690.157L329.208 689.495C329.208 689.495 329.573 692.153 333.41 692.318C335.808 692.422 337.809 690.587 337.809 690.587L341.605 697.237C341.605 697.237 337.843 700.918 331.369 700.638C323.217 700.286 317.481 694.033 317.802 686.6C318.123 679.167 324.376 673.431 331.809 673.752ZM329.165 684.928L333.481 685.115C333.564 683.197 332.646 682.196 331.447 682.144C330.248 682.093 329.248 683.01 329.165 684.928ZM358.511 687.779C358.513 689.939 359.954 691.378 362.354 691.376C364.754 691.374 366.672 689.453 366.672 689.453L371.478 697.129C371.478 697.129 367.641 701.212 360.681 701.217C352.521 701.224 346.517 695.228 346.511 687.788C346.505 680.348 352.5 674.344 360.66 674.337C367.62 674.332 371.464 678.409 371.464 678.409L366.67 686.093C366.67 686.093 364.748 684.174 362.348 684.176C359.948 684.178 358.509 685.619 358.511 687.779ZM373.242 674.969L400.098 673.813L401.191 699.23L389.682 699.725L389.001 683.9L385.165 684.065L385.846 699.89L374.336 700.385L373.242 674.969ZM405.694 673.323L429.083 670.851L431.757 696.15L420.301 697.361L418.636 681.608L416.727 681.81C418.013 693.982 414.171 698.733 407.965 699.388C406.056 699.59 403.594 699.126 403.594 699.126L402.736 691.011L403.691 690.911C406.078 690.658 407.358 689.075 405.694 673.323ZM442.981 667.741C451.014 666.305 457.976 671.156 459.285 678.48C460.012 682.543 460.865 687.316 461.524 691.001L450.656 692.944L449.204 690.278C449.204 690.278 447.948 694.16 443.695 694.92C438.497 695.849 434.599 693.133 433.796 688.644C432.994 684.155 435.71 680.256 443.743 678.82L447.523 678.145C447.523 678.145 446.585 675.63 442.805 676.306C440.443 676.728 438.891 678.956 438.891 678.956L433.734 673.295C433.734 673.295 436.602 668.882 442.981 667.741ZM446.596 686.6C447.777 686.388 448.747 684.996 448.241 682.161C445.642 682.625 444.672 684.018 444.925 685.435C445.052 686.144 445.887 686.726 446.596 686.6ZM457.457 665.902L480.789 660.278L483.151 670.078L477.085 671.54L480.684 686.472L469.484 689.171L465.885 674.239L459.819 675.701L457.457 665.902ZM499.179 663.217L496.813 655.407L507.838 652.067L515.214 676.415L504.188 679.755L501.823 671.945L498.148 673.058L500.513 680.868L489.488 684.208L482.113 659.861L493.138 656.521L495.504 664.33L499.179 663.217ZM526.165 652.439C531.778 650.319 537.346 652.834 539.212 657.773C541.078 662.712 538.563 668.28 530.705 671.248C524.194 673.708 519.758 674.87 519.758 674.87L510.769 651.071L521.546 647.001L524.005 653.512C524.005 653.512 525.267 652.778 526.165 652.439ZM526.185 660.641L527.542 664.233C528.889 663.725 529.308 662.797 528.884 661.674C528.46 660.551 527.532 660.132 526.185 660.641ZM545.569 637.926L554.558 661.725L543.782 665.796L534.792 641.997L545.569 637.926ZM569.943 655.006L558.987 659.901L548.61 636.673L559.128 631.975L563.631 642.054L563.073 630.212L574.029 625.318L584.406 648.545L573.888 653.244L569.384 643.164L569.943 655.006ZM557.012 621.354C558.108 620.865 558.472 619.913 557.982 618.818L564.556 615.881C566.808 620.921 564.989 625.676 559.949 627.928C554.909 630.179 550.154 628.361 547.902 623.321L554.476 620.384C554.966 621.48 555.917 621.843 557.012 621.354ZM1157.05 220.975C1153.19 214.611 1155.21 206.371 1162.6 201.894C1169.99 197.418 1178.24 199.441 1182.09 205.805C1185.94 212.168 1183.92 220.409 1176.53 224.885C1169.14 229.362 1160.9 227.338 1157.05 220.975ZM1172.24 211.773C1171.12 209.926 1169.14 209.44 1167.7 210.31C1166.27 211.181 1165.78 213.159 1166.9 215.006C1168.02 216.854 1170 217.339 1171.43 216.469C1172.87 215.598 1173.36 213.621 1172.24 211.773ZM1177.51 193.743L1198.46 182.034L1203.38 190.833L1197.93 193.877L1205.43 207.285L1195.37 212.905L1187.88 199.497L1182.43 202.542L1177.51 193.743ZM1226.92 167.528L1226.58 181.698L1239.3 189.771L1227.96 195.535L1219.11 188.724L1223.68 197.71L1213.41 202.93L1201.88 180.252L1212.15 175.032L1216.5 183.59L1215.79 173.183L1226.92 167.528ZM1261.79 165.935C1265.29 173.836 1262.84 180.168 1258.01 182.305C1253.63 184.248 1250.41 181.733 1250.41 181.733L1256.44 195.34L1245.9 200.002L1230.75 165.766L1240.4 161.492C1242.45 163.737 1242.45 163.737 1242.45 163.737C1242.45 163.737 1242.75 159.668 1247.14 157.725C1251.96 155.588 1258.3 158.035 1261.79 165.935ZM1250.82 170.792C1249.85 168.597 1248.27 167.986 1246.95 168.569C1245.63 169.151 1245.02 170.734 1245.99 172.929C1246.96 175.124 1248.55 175.735 1249.86 175.152C1251.18 174.57 1251.79 172.987 1250.82 170.792ZM1277.4 153.9C1283.06 151.901 1288.57 154.535 1290.33 159.513C1292.09 164.491 1289.45 170.004 1281.53 172.803C1274.97 175.121 1270.51 176.188 1270.51 176.188L1262.04 152.202L1272.9 148.363L1275.22 154.926C1275.22 154.926 1276.5 154.22 1277.4 153.9ZM1277.24 162.101L1278.52 165.721C1279.88 165.242 1280.32 164.323 1279.92 163.191C1279.52 162.06 1278.6 161.621 1277.24 162.101ZM1297.11 139.808L1305.59 163.794L1294.73 167.632L1286.25 143.646L1297.11 139.808ZM1301.86 138.268L1325.07 132.19L1327.63 141.941L1321.59 143.521L1325.48 158.381L1314.34 161.298L1310.45 146.439L1304.41 148.019L1301.86 138.268ZM1345.16 135.651C1351.08 134.715 1356.02 138.309 1356.85 143.524C1357.67 148.74 1354.08 153.681 1345.78 154.99C1338.9 156.075 1334.32 156.312 1334.32 156.312L1330.36 131.183L1341.74 129.387L1342.82 136.262C1342.82 136.262 1344.21 135.8 1345.16 135.651ZM1343.51 143.686L1344.11 147.479C1345.53 147.254 1346.13 146.431 1345.94 145.246C1345.75 144.06 1344.93 143.461 1343.51 143.686ZM1367.1 125.384L1371.07 150.513L1359.69 152.308L1355.72 127.18L1367.1 125.384ZM1387.8 149.73L1375.81 150.075L1375.07 124.645L1386.59 124.314L1386.91 135.349L1390.91 124.19L1402.9 123.844L1403.63 149.274L1392.12 149.605L1391.8 138.57L1387.8 149.73ZM1388.68 113.689C1389.88 113.655 1390.58 112.914 1390.55 111.715L1397.75 111.508C1397.9 117.025 1394.41 120.727 1388.89 120.886C1383.37 121.045 1379.67 117.55 1379.51 112.032L1386.71 111.825C1386.74 113.025 1387.49 113.724 1388.68 113.689Z" fill="#1E223D"/>
</g>
<defs>
<clipPath id="clip0_592_518">
<rect width="1440" height="805" fill="white"/>
</clipPath>
</defs>
</svg>
